# This file uses centimeters as units for non-parametric coordinates.

mtllib Dart Speed Lines 2.mtl
g default
v 0.160458 -0.452583 -0.160458
v 0.000000 -0.452583 -0.226922
v -0.160458 -0.452583 -0.160458
v -0.226922 -0.452583 0.000000
v -0.160458 -0.452583 0.160458
v 0.000000 -0.452583 0.226922
v 0.160458 -0.452583 0.160458
v 0.226922 -0.452583 0.000000
v 0.160458 0.452583 -0.160458
v 0.000000 0.452583 -0.226922
v -0.160458 0.452583 -0.160458
v -0.226922 0.452583 0.000000
v -0.160458 0.452583 0.160458
v 0.000000 0.452583 0.226922
v 0.160458 0.452583 0.160458
v 0.226922 0.452583 0.000000
v 0.000000 0.000000 -0.226922
v -0.160458 0.000000 -0.160458
v -0.226922 0.000000 0.000000
v -0.160458 0.000000 0.160458
v 0.000000 0.000000 0.226922
v 0.160458 0.000000 0.160458
v 0.226922 0.000000 0.000000
v 0.160458 0.000000 -0.160458
v 0.160458 0.226291 -0.160458
v 0.226922 0.226291 0.000000
v 0.160458 0.226291 0.160458
v 0.000000 0.226291 0.226922
v -0.160458 0.226291 0.160458
v -0.226922 0.226291 0.000000
v -0.160458 0.226291 -0.160458
v 0.000000 0.226291 -0.226922
v 0.000000 -0.226291 -0.226922
v -0.160458 -0.226291 -0.160458
v -0.226922 -0.226291 0.000000
v -0.160458 -0.226291 0.160458
v 0.000000 -0.226291 0.226922
v 0.160458 -0.226291 0.160458
v 0.226922 -0.226291 0.000000
v 0.160458 -0.226291 -0.160458
vt 0.000215 0.003370
vt 0.125161 0.003370
vt 0.125161 0.996630
vt 0.000215 0.996630
vt 0.250107 0.003370
vt 0.250107 0.996630
vt 0.375054 0.003370
vt 0.375054 0.996630
vt 0.500000 0.003370
vt 0.500000 0.996630
vt 0.624946 0.003370
vt 0.624946 0.996630
vt 0.749892 0.003370
vt 0.749892 0.996630
vt 0.874839 0.003370
vt 0.874839 0.996630
vt 0.999785 0.003370
vt 0.999785 0.996630
vt 0.125161 0.500000
vt 0.250107 0.500000
vt 0.375054 0.500000
vt 0.500000 0.500000
vt 0.624946 0.500000
vt 0.749892 0.500000
vt 0.874839 0.500000
vt 0.000215 0.500000
vt 0.999785 0.500000
vt 0.000215 0.748315
vt 0.999785 0.748315
vt 0.874839 0.748315
vt 0.749892 0.748315
vt 0.624946 0.748315
vt 0.500000 0.748315
vt 0.375054 0.748315
vt 0.250107 0.748315
vt 0.125161 0.748315
vt 0.125161 0.251685
vt 0.250107 0.251685
vt 0.375054 0.251685
vt 0.500000 0.251685
vt 0.624946 0.251685
vt 0.749892 0.251685
vt 0.874839 0.251685
vt 0.000215 0.251685
vt 0.999785 0.251685
vn 0.382684 0.000000 -0.923879
vn 0.382684 0.000000 -0.923879
vn 0.382684 0.000000 -0.923879
vn 0.382684 0.000000 -0.923879
vn -0.382684 0.000000 -0.923879
vn -0.382684 0.000000 -0.923879
vn -0.382684 0.000000 -0.923879
vn -0.382684 0.000000 -0.923879
vn -0.923879 0.000000 -0.382684
vn -0.923879 0.000000 -0.382684
vn -0.923879 0.000000 -0.382684
vn -0.923879 0.000000 -0.382684
vn -0.923879 0.000000 0.382684
vn -0.923879 0.000000 0.382684
vn -0.923879 0.000000 0.382684
vn -0.923879 0.000000 0.382684
vn -0.382684 0.000000 0.923879
vn -0.382684 0.000000 0.923879
vn -0.382684 0.000000 0.923879
vn -0.382684 0.000000 0.923879
vn 0.382684 0.000000 0.923879
vn 0.382684 0.000000 0.923879
vn 0.382684 0.000000 0.923879
vn 0.382684 0.000000 0.923879
vn 0.923879 0.000000 0.382684
vn 0.923879 0.000000 0.382684
vn 0.923879 0.000000 0.382684
vn 0.923879 0.000000 0.382684
vn 0.923879 0.000000 -0.382684
vn 0.923879 0.000000 -0.382684
vn 0.923879 0.000000 -0.382684
vn 0.923879 0.000000 -0.382684
vn -0.382684 0.000000 -0.923879
vn -0.382684 0.000000 -0.923879
vn -0.923879 0.000000 -0.382684
vn -0.923879 0.000000 -0.382684
vn -0.923879 0.000000 0.382684
vn -0.923879 0.000000 0.382684
vn -0.382684 0.000000 0.923879
vn -0.382684 0.000000 0.923879
vn 0.382684 0.000000 0.923879
vn 0.382684 0.000000 0.923879
vn 0.923879 0.000000 0.382684
vn 0.923879 0.000000 0.382684
vn 0.923879 0.000000 -0.382684
vn 0.923879 0.000000 -0.382684
vn 0.382684 0.000000 -0.923879
vn 0.382684 0.000000 -0.923879
vn 0.923879 0.000000 -0.382684
vn 0.923879 0.000000 -0.382684
vn 0.923880 0.000000 0.382683
vn 0.923880 0.000000 0.382683
vn 0.382683 0.000000 0.923880
vn 0.382683 0.000000 0.923880
vn -0.382683 0.000000 0.923880
vn -0.382683 0.000000 0.923880
vn -0.923880 0.000000 0.382683
vn -0.923880 0.000000 0.382683
vn -0.923880 0.000000 -0.382683
vn -0.923880 0.000000 -0.382683
vn -0.382683 0.000000 -0.923880
vn -0.382683 0.000000 -0.923880
vn 0.382683 0.000000 -0.923880
vn 0.382683 0.000000 -0.923880
vn -0.382683 0.000000 -0.923880
vn -0.382683 0.000000 -0.923880
vn -0.923880 0.000000 -0.382683
vn -0.923880 0.000000 -0.382683
vn -0.923880 0.000000 0.382683
vn -0.923880 0.000000 0.382683
vn -0.382683 0.000000 0.923880
vn -0.382683 0.000000 0.923880
vn 0.382683 0.000000 0.923880
vn 0.382683 0.000000 0.923880
vn 0.923880 0.000000 0.382683
vn 0.923880 0.000000 0.382683
vn 0.923879 0.000000 -0.382684
vn 0.923879 0.000000 -0.382684
vn 0.382683 0.000000 -0.923880
vn 0.382683 0.000000 -0.923880
s 1
g Dart_Speed_Lines:Dart_Speed_Lines
usemtl initialShadingGroup
f 24/26/1 17/19/2 32/36/3 25/28/4
s 2
f 17/19/5 18/20/6 31/35/7 32/36/8
s 3
f 18/20/9 19/21/10 30/34/11 31/35/12
s 4
f 19/21/13 20/22/14 29/33/15 30/34/16
s 5
f 20/22/17 21/23/18 28/32/19 29/33/20
s 6
f 21/23/21 22/24/22 27/31/23 28/32/24
s 7
f 22/24/25 23/25/26 26/30/27 27/31/28
s 8
f 23/25/29 24/27/30 25/29/31 26/30/32
s 2
f 33/37/33 34/38/34 18/20/6 17/19/5
s 3
f 34/38/35 35/39/36 19/21/10 18/20/9
s 4
f 35/39/37 36/40/38 20/22/14 19/21/13
s 5
f 36/40/39 37/41/40 21/23/18 20/22/17
s 6
f 37/41/41 38/42/42 22/24/22 21/23/21
s 7
f 38/42/43 39/43/44 23/25/26 22/24/25
s 8
f 39/43/45 40/45/46 24/27/30 23/25/29
s 1
f 40/44/47 33/37/48 17/19/2 24/26/1
s 8
f 26/30/32 25/29/31 9/18/49 16/16/50
s 7
f 27/31/28 26/30/27 16/16/51 15/14/52
s 6
f 28/32/24 27/31/23 15/14/53 14/12/54
s 5
f 29/33/20 28/32/19 14/12/55 13/10/56
s 4
f 30/34/16 29/33/15 13/10/57 12/8/58
s 3
f 31/35/12 30/34/11 12/8/59 11/6/60
s 2
f 32/36/8 31/35/7 11/6/61 10/3/62
s 1
f 25/28/4 32/36/3 10/3/63 9/4/64
s 2
f 2/2/65 3/5/66 34/38/34 33/37/33
s 3
f 3/5/67 4/7/68 35/39/36 34/38/35
s 4
f 4/7/69 5/9/70 36/40/38 35/39/37
s 5
f 5/9/71 6/11/72 37/41/40 36/40/39
s 6
f 6/11/73 7/13/74 38/42/42 37/41/41
s 7
f 7/13/75 8/15/76 39/43/44 38/42/43
s 8
f 8/15/77 1/17/78 40/45/46 39/43/45
s 1
f 1/1/79 2/2/80 33/37/48 40/44/47
