# This file uses centimeters as units for non-parametric coordinates.

mtllib Dart Speed Lines.mtl
g default
v 0.160458 -0.452583 -0.160458
v 0.000000 -0.452583 -0.226922
v -0.160458 -0.452583 -0.160458
v -0.226922 -0.452583 0.000000
v -0.160458 -0.452583 0.160458
v 0.000000 -0.452583 0.226922
v 0.160458 -0.452583 0.160458
v 0.226922 -0.452583 0.000000
v 0.160458 0.452583 -0.160458
v 0.000000 0.452583 -0.226922
v -0.160458 0.452583 -0.160458
v -0.226922 0.452583 0.000000
v -0.160458 0.452583 0.160458
v 0.000000 0.452583 0.226922
v 0.160458 0.452583 0.160458
v 0.226922 0.452583 0.000000
vt 0.000215 0.003370
vt 0.125161 0.003370
vt 0.250107 0.003370
vt 0.375054 0.003370
vt 0.500000 0.003370
vt 0.624946 0.003370
vt 0.749892 0.003370
vt 0.874839 0.003370
vt 0.999785 0.003370
vt 0.000215 0.996630
vt 0.125161 0.996630
vt 0.250107 0.996630
vt 0.375054 0.996630
vt 0.500000 0.996630
vt 0.624946 0.996630
vt 0.749892 0.996630
vt 0.874839 0.996630
vt 0.999785 0.996630
vn 0.382683 0.000000 -0.923879
vn 0.382683 0.000000 -0.923879
vn 0.382683 0.000000 -0.923879
vn 0.382683 0.000000 -0.923879
vn -0.382683 0.000000 -0.923879
vn -0.382683 0.000000 -0.923879
vn -0.382683 0.000000 -0.923879
vn -0.382683 0.000000 -0.923879
vn -0.923879 0.000000 -0.382683
vn -0.923879 0.000000 -0.382683
vn -0.923879 0.000000 -0.382683
vn -0.923879 0.000000 -0.382683
vn -0.923879 0.000000 0.382683
vn -0.923879 0.000000 0.382683
vn -0.923879 0.000000 0.382683
vn -0.923879 0.000000 0.382683
vn -0.382683 0.000000 0.923879
vn -0.382683 0.000000 0.923879
vn -0.382683 0.000000 0.923879
vn -0.382683 0.000000 0.923879
vn 0.382683 0.000000 0.923880
vn 0.382683 0.000000 0.923880
vn 0.382683 0.000000 0.923880
vn 0.382683 0.000000 0.923880
vn 0.923880 0.000000 0.382683
vn 0.923880 0.000000 0.382683
vn 0.923880 0.000000 0.382683
vn 0.923880 0.000000 0.382683
vn 0.923880 0.000000 -0.382684
vn 0.923880 0.000000 -0.382684
vn 0.923880 0.000000 -0.382684
vn 0.923880 0.000000 -0.382684
s off
g Dart_Speed_Lines
usemtl initialShadingGroup
f 1/1/1 2/2/2 10/11/3 9/10/4
f 2/2/5 3/3/6 11/12/7 10/11/8
f 3/3/9 4/4/10 12/13/11 11/12/12
f 4/4/13 5/5/14 13/14/15 12/13/16
f 5/5/17 6/6/18 14/15/19 13/14/20
f 6/6/21 7/7/22 15/16/23 14/15/24
f 7/7/25 8/8/26 16/17/27 15/16/28
f 8/8/29 1/9/30 9/18/31 16/17/32
