# Blender v2.80 (sub 74) OBJ File: ''
# www.blender.org
mtllib lLeg.mtl
o Fox_Final_Low.006_Fox_Final_Low.007
v -0.316914 0.564902 -0.524220
v -0.160318 0.568353 -0.564485
v -0.035080 0.581115 -0.578917
v 0.196389 0.584705 -0.537938
v 0.302593 0.578029 -0.490170
v 0.366491 0.574219 -0.453752
v 0.508036 0.560097 -0.338469
v 0.516335 0.340403 -0.123112
v 0.404606 0.342123 -0.262601
v 0.280553 0.344650 -0.353093
v 0.226595 0.349791 -0.383487
v 0.152736 0.351115 -0.413401
v -0.017700 0.351252 -0.444592
v -0.126267 0.348213 -0.437724
v -0.268665 0.337420 -0.396391
v -0.573032 0.343253 -0.193190
v -0.639626 0.207089 0.146494
v -0.521893 0.246960 -0.148371
v 0.511652 0.211622 0.144078
v 0.468866 0.204902 -0.065587
v 0.372380 0.205293 -0.201417
v 0.252813 0.207517 -0.293188
v 0.195612 0.209879 -0.323219
v 0.128014 0.208845 -0.347666
v -0.007461 0.209377 -0.368715
v -0.135655 0.191939 -0.346764
v -0.382021 0.134313 -0.187906
v -0.537802 0.082264 0.133125
v -0.451838 0.036557 0.354097
v -0.344162 0.000868 0.403532
v 0.310696 -0.347534 0.257719
v 0.318487 -0.502557 0.275947
v 0.376588 -0.489957 0.213296
v 0.362646 -0.345589 0.190626
v 0.399785 -0.483522 0.099849
v 0.368297 -0.341553 0.079102
v 0.343612 -0.028723 -0.093353
v 0.400364 -0.025040 0.008135
v 0.299852 -0.360140 -0.042872
v 0.266420 -0.034862 -0.170747
v 0.340150 -0.346702 0.012079
v 0.350348 -0.509543 -0.026997
v 0.281471 -0.494222 -0.075168
v 0.247275 -0.347790 -0.091798
v 0.200469 -0.508526 -0.112246
v 0.178333 -0.359747 -0.130415
v 0.070786 -0.511883 -0.120578
v 0.056021 -0.364131 -0.150527
v -0.040048 -0.519581 -0.086660
v -0.053106 -0.374079 -0.122371
v -0.179895 -0.520011 0.000368
v -0.208003 -0.385192 -0.024536
v -0.304992 -0.508044 0.158468
v -0.336446 -0.386086 0.155722
v -0.288119 -0.499705 0.267318
v -0.312497 -0.390830 0.278535
v -0.222472 -0.484932 0.314107
v -0.244732 -0.388205 0.327002
v 0.002549 -0.461171 0.345584
v -0.012890 -0.350073 0.362689
v 0.130304 -0.482512 0.334366
v 0.122097 -0.357331 0.340962
v 0.232794 -0.495239 0.312910
v 0.230518 -0.355439 0.306207
v 0.379997 -0.490236 0.031746
v 0.213076 -0.029060 -0.209434
v 0.146430 -0.034620 -0.238415
v 0.020398 -0.036111 -0.258841
v -0.094868 -0.050279 -0.234984
v -0.295108 -0.086256 -0.105248
v -0.431900 -0.113450 0.145459
v -0.378962 -0.143846 0.311515
v -0.297839 -0.166507 0.361447
v -0.048607 -0.096289 0.413856
v 0.110628 -0.074886 0.393425
v 0.250264 -0.041606 0.349607
v 0.358321 -0.000530 0.282338
v 0.414948 -0.021137 0.161999
v 0.510957 -0.520760 0.169607
v 0.503706 -0.539931 0.046014
v 0.485851 -0.566718 -0.018287
v 0.361952 -0.588970 -0.088237
v 0.248792 -0.601213 -0.119790
v 0.097489 -0.602342 -0.117952
v -0.031668 -0.600157 -0.075564
v -0.168947 -0.599890 0.011857
v -0.287207 -0.579608 0.155131
v -0.270498 -0.567595 0.264123
v -0.202505 -0.569883 0.305138
v 0.019446 -0.570994 0.340507
v 0.140453 -0.567613 0.342681
v 0.238565 -0.567302 0.338771
v 0.335985 -0.558227 0.319509
v 0.454942 -0.545961 0.279030
v 0.604460 -0.571964 0.207553
v 0.520507 -0.604403 0.311772
v 0.610072 -0.587795 0.068770
v 0.582016 -0.599660 -0.020764
v 0.441884 -0.635089 -0.104066
v 0.292432 -0.647689 -0.134239
v 0.118012 -0.649043 -0.123957
v -0.026582 -0.653279 -0.074265
v -0.159297 -0.652746 0.011357
v -0.267148 -0.636199 0.144067
v -0.256757 -0.627319 0.257123
v -0.191202 -0.629133 0.300343
v 0.021691 -0.620679 0.344676
v 0.137679 -0.624499 0.354400
v 0.246440 -0.625801 0.356923
v 0.364237 -0.619163 0.348714
v 0.295538 -0.681523 -0.121312
v 0.108869 -0.680421 -0.103365
v 0.433674 -0.679857 -0.113444
v -0.017727 -0.679013 -0.065985
v -0.185860 -0.675788 0.068940
v -0.239801 -0.668538 0.157004
v -0.238687 -0.659698 0.247157
v -0.189050 -0.662440 0.287265
v 0.007202 -0.658316 0.344061
v 0.245449 -0.657283 0.366008
v 0.140685 -0.656828 0.360171
v 0.367364 -0.661319 0.362471
v 0.577240 -0.668696 0.327397
v 0.641934 -0.599517 0.213586
v 0.654086 -0.610751 0.081114
v 0.640339 -0.620043 -0.024634
v 0.693635 -0.671930 0.278169
v 0.784394 -0.673499 0.173970
v 0.779984 -0.670947 0.128551
v 0.710261 -0.644173 -0.017117
v 0.675902 -0.676368 -0.053009
v 0.750489 -0.685737 0.122190
v 0.668815 -0.665925 0.055050
v 0.736228 -0.682632 0.167049
v 0.649132 -0.662905 0.217108
v 0.516129 0.574522 -0.343812
v 0.522495 0.559030 -0.319319
v 0.417285 0.152948 0.322687
v 0.272911 0.102856 0.401881
v 0.107701 0.075935 0.444443
v -0.072089 0.063951 0.463390
v -0.149261 0.069744 0.454231
v -0.492370 0.107280 0.394887
v -0.312589 0.072393 0.450042
v -0.569456 0.171082 0.294017
v 0.490876 0.221935 0.213620
v 0.547334 0.274785 0.130066
v 0.579178 0.449216 -0.145706
v 0.560028 0.346419 0.016814
v 0.406513 0.677197 -0.506139
v 0.225334 0.762548 -0.641076
v 0.342720 0.714618 -0.565301
v -0.042566 0.800685 -0.701371
v -0.166224 0.789979 -0.684443
v -0.341463 0.749066 -0.619761
v -0.628893 0.584301 -0.359273
v -0.705421 0.289478 0.106837
v -0.650647 0.567649 -0.332946
v -0.712348 0.362160 -0.008072
v -0.716323 0.343459 0.021493
vt 0.745896 0.979443
vt 0.746247 0.977688
vt 0.745725 0.975814
vt 0.745671 0.975550
vt 0.744543 0.973797
vt 0.743864 0.973159
vt 0.742594 0.972341
vt 0.739608 0.971690
vt 0.738184 0.971873
vt 0.736111 0.972571
vt 0.732465 0.975383
vt 0.732177 0.975667
vt 0.730988 0.979174
vt 0.730899 0.979493
vt 0.730905 0.980414
vt 0.732261 0.982435
vt 0.733056 0.983524
vt 0.735137 0.984119
vt 0.737081 0.984164
vt 0.737992 0.984263
vt 0.740156 0.984059
vt 0.742165 0.983599
vt 0.743953 0.982744
vt 0.744919 0.981567
vt 0.745655 0.980665
vt 0.270241 0.313624
vt 0.258769 0.305499
vt 0.262717 0.294087
vt 0.275088 0.304949
vt 0.267162 0.287625
vt 0.279162 0.298369
vt 0.295982 0.285297
vt 0.289745 0.288739
vt 0.281578 0.278527
vt 0.290582 0.276769
vt 0.300013 0.283346
vt 0.296517 0.276554
vt 0.327790 0.292900
vt 0.316338 0.294417
vt 0.310722 0.279755
vt 0.312148 0.279456
vt 0.325573 0.284703
vt 0.307696 0.297928
vt 0.304264 0.299417
vt 0.300217 0.301833
vt 0.292684 0.308357
vt 0.289204 0.313450
vt 0.286164 0.321299
vt 0.291151 0.342967
vt 0.282713 0.342866
vt 0.671638 0.475570
vt 0.661285 0.483147
vt 0.648390 0.481964
vt 0.643589 0.476625
vt 0.660477 0.465098
vt 0.673312 0.455720
vt 0.684353 0.466167
vt 0.695211 0.457508
vt 0.684601 0.446733
vt 0.689408 0.442792
vt 0.699822 0.454172
vt 0.694393 0.437989
vt 0.705245 0.449229
vt 0.703540 0.428399
vt 0.716514 0.437686
vt 0.722632 0.429585
vt 0.709933 0.417414
vt 0.735918 0.383789
vt 0.718819 0.389970
vt 0.723145 0.355052
vt 0.738887 0.352862
vt 0.508572 0.482706
vt 0.532543 0.484981
vt 0.532017 0.494011
vt 0.518383 0.497862
vt 0.502029 0.497209
vt 0.544135 0.480359
vt 0.564775 0.483789
vt 0.549266 0.487580
vt 0.602996 0.430366
vt 0.595771 0.416483
vt 0.603098 0.414553
vt 0.610903 0.427035
vt 0.612149 0.410636
vt 0.621148 0.422011
vt 0.652661 0.439822
vt 0.642903 0.446931
vt 0.632301 0.412726
vt 0.661285 0.432539
vt 0.627245 0.417694
vt 0.620879 0.402286
vt 0.627802 0.399590
vt 0.638940 0.409354
vt 0.633216 0.393561
vt 0.644401 0.403331
vt 0.641405 0.385061
vt 0.652907 0.394166
vt 0.647074 0.375802
vt 0.658970 0.384542
vt 0.654734 0.362051
vt 0.667125 0.368143
vt 0.663359 0.344360
vt 0.675075 0.347602
vt 0.526541 0.438219
vt 0.529169 0.426294
vt 0.539562 0.429078
vt 0.538601 0.440045
vt 0.547239 0.430320
vt 0.546738 0.440102
vt 0.568965 0.429258
vt 0.570065 0.440261
vt 0.579783 0.424430
vt 0.582941 0.436203
vt 0.588275 0.420193
vt 0.593893 0.432991
vt 0.617038 0.407013
vt 0.666912 0.428727
vt 0.672070 0.423354
vt 0.680931 0.413832
vt 0.687047 0.403551
vt 0.695827 0.381006
vt 0.701961 0.353195
vt 0.535832 0.465261
vt 0.518427 0.464100
vt 0.545330 0.462755
vt 0.571791 0.465441
vt 0.572350 0.481847
vt 0.588287 0.463781
vt 0.589928 0.479227
vt 0.603635 0.463031
vt 0.606724 0.478183
vt 0.617401 0.462893
vt 0.623425 0.479152
vt 0.629253 0.455440
vt 0.637842 0.480729
vt 0.642605 0.633308
vt 0.634938 0.622904
vt 0.639587 0.617394
vt 0.646552 0.625419
vt 0.631793 0.612678
vt 0.627155 0.619616
vt 0.619278 0.613705
vt 0.628868 0.606587
vt 0.618043 0.603516
vt 0.626713 0.599330
vt 0.626893 0.587972
vt 0.618761 0.590044
vt 0.619489 0.578049
vt 0.626814 0.577907
vt 0.620270 0.563752
vt 0.627469 0.563243
vt 0.621026 0.547412
vt 0.627150 0.545317
vt 0.611878 0.712966
vt 0.608292 0.707173
vt 0.617824 0.703927
vt 0.621139 0.709011
vt 0.622451 0.698815
vt 0.627551 0.704550
vt 0.640083 0.688449
vt 0.632427 0.682289
vt 0.637344 0.672798
vt 0.644050 0.676492
vt 0.640109 0.664269
vt 0.646756 0.665459
vt 0.642454 0.655411
vt 0.648795 0.654132
vt 0.642585 0.644790
vt 0.651273 0.642363
vt 0.637720 0.634757
vt 0.637072 0.644904
vt 0.631867 0.624830
vt 0.624102 0.620463
vt 0.611717 0.621653
vt 0.613122 0.607451
vt 0.614514 0.591720
vt 0.614692 0.578159
vt 0.615562 0.564262
vt 0.616336 0.549547
vt 0.604893 0.701701
vt 0.614558 0.699969
vt 0.618683 0.695340
vt 0.628542 0.680188
vt 0.632210 0.671442
vt 0.634397 0.663326
vt 0.636058 0.654848
vt 0.609861 0.607384
vt 0.611386 0.590214
vt 0.605365 0.625126
vt 0.612173 0.578241
vt 0.612667 0.558744
vt 0.612931 0.549171
vt 0.604548 0.696781
vt 0.612588 0.697456
vt 0.615774 0.694307
vt 0.624784 0.680187
vt 0.631207 0.663150
vt 0.629322 0.670534
vt 0.631992 0.654902
vt 0.631935 0.643040
vt 0.636267 0.635651
vt 0.630276 0.626030
vt 0.624463 0.621397
vt 0.633261 0.636261
vt 0.632416 0.631988
vt 0.630125 0.630277
vt 0.624252 0.624414
vt 0.621864 0.623790
vt 0.628741 0.629378
vt 0.625826 0.628437
vt 0.630918 0.632229
vt 0.631009 0.636041
vt 0.597526 0.689026
vt 0.590753 0.669378
vt 0.591437 0.656533
vt 0.597120 0.638169
vt 0.263175 0.336751
vt 0.262290 0.334379
vt 0.335486 0.291365
vt 0.310393 0.278721
vt 0.295224 0.362369
vt 0.287460 0.359150
vt 0.285118 0.357688
vt 0.304559 0.360917
vt 0.316845 0.362889
vn -0.0000 0.8451 0.5346
vn -0.3408 -0.4560 -0.8221
vn -0.3089 -0.4992 -0.8095
vn -0.1219 -0.4846 -0.8662
vn -0.1446 -0.4928 -0.8580
vn 0.0398 -0.5187 -0.8541
vn 0.0769 -0.4947 -0.8656
vn 0.3505 -0.5100 -0.7855
vn 0.2433 -0.4735 -0.8465
vn 0.2091 -0.5182 -0.8293
vn 0.3320 -0.5239 -0.7844
vn 0.4756 -0.5186 -0.7105
vn 0.4168 -0.5581 -0.7175
vn 0.7880 -0.4718 -0.3955
vn 0.6073 -0.4837 -0.6303
vn 0.5812 -0.5239 -0.6227
vn 0.6588 -0.5222 -0.5416
vn 0.7118 -0.5309 -0.4598
vn 0.4852 -0.4748 -0.7343
vn 0.3576 -0.4742 -0.8045
vn 0.2113 -0.4773 -0.8530
vn 0.0765 -0.4878 -0.8696
vn -0.2300 -0.4916 -0.8399
vn -0.3678 -0.6015 -0.7092
vn -0.5596 -0.6274 -0.5415
vn -0.5296 -0.6244 -0.5741
vn 0.8476 -0.4840 -0.2177
vn 0.8803 -0.4658 -0.0903
vn 0.9092 -0.4046 0.0979
vn 0.8523 -0.4096 -0.3253
vn 0.6721 -0.3999 -0.6232
vn 0.5317 -0.3951 -0.7492
vn 0.3869 -0.3954 -0.8331
vn 0.2084 -0.4118 -0.8871
vn 0.0321 -0.4370 -0.8989
vn -0.3548 -0.4237 -0.8334
vn -0.5742 -0.4656 -0.6734
vn -0.8009 -0.5616 -0.2077
vn -0.7881 -0.6125 -0.0613
vn -0.7431 -0.5263 0.4133
vn -0.6862 -0.6544 0.3176
vn -0.7300 -0.6577 0.1857
vn -0.2569 -0.4406 0.8601
vn -0.1244 -0.3781 0.9174
vn -0.1536 -0.5660 0.8100
vn 0.6888 -0.0706 0.7215
vn 0.4709 0.3867 0.7929
vn 0.6707 0.5996 0.4365
vn 0.9576 -0.0523 0.2833
vn 0.7643 0.6441 -0.0322
vn 0.9846 -0.0693 -0.1602
vn 0.7660 -0.2847 -0.5763
vn 0.9269 -0.2725 -0.2581
vn 0.7171 -0.0942 -0.6905
vn 0.6286 -0.2898 -0.7217
vn 0.8493 -0.0948 -0.5193
vn 0.5692 0.4762 -0.6703
vn 0.4655 0.2034 -0.8613
vn 0.5357 -0.1647 -0.8282
vn 0.1983 0.0095 -0.9801
vn 0.2734 -0.2221 -0.9359
vn -0.0912 -0.1398 -0.9860
vn -0.0170 -0.2833 -0.9589
vn -0.4156 -0.2168 -0.8833
vn -0.3831 -0.3217 -0.8659
vn -0.6611 -0.2282 -0.7148
vn -0.6583 -0.3249 -0.6790
vn -0.9009 -0.2482 -0.3561
vn -0.8981 -0.3246 -0.2968
vn -0.8538 -0.2468 0.4584
vn -0.8504 -0.2874 0.4408
vn -0.2349 -0.1559 0.9594
vn -0.2419 -0.2077 0.9478
vn -0.0501 -0.1024 0.9935
vn -0.0203 -0.1775 0.9839
vn 0.1434 0.0177 0.9895
vn 0.2223 -0.1313 0.9661
vn 0.3050 0.1621 0.9385
vn 0.4105 -0.0941 0.9070
vn 0.7020 0.5662 -0.4320
vn 0.4715 -0.3012 -0.8288
vn 0.2495 -0.3285 -0.9109
vn 0.0074 -0.3652 -0.9309
vn -0.3446 -0.3994 -0.8495
vn -0.6370 -0.4119 -0.6516
vn -0.8738 -0.4181 -0.2484
vn -0.8275 -0.3697 0.4226
vn -0.2454 -0.2613 0.9335
vn -0.0190 -0.2445 0.9695
vn -0.0401 -0.3076 0.9507
vn 0.2329 -0.2364 0.9433
vn 0.2464 -0.3145 0.9167
vn 0.4410 -0.2541 0.8608
vn 0.4611 -0.3767 0.8034
vn 0.7344 -0.2936 0.6119
vn 0.7603 -0.4034 0.5091
vn 0.9483 -0.2658 0.1732
vn 0.8419 -0.3928 0.3699
vn 0.3951 0.9111 0.1171
vn 0.4139 0.8758 -0.2484
vn 0.3275 0.7591 -0.5627
vn 0.2845 0.5362 -0.7947
vn 0.1136 0.2347 -0.9654
vn -0.1425 0.0019 -0.9898
vn -0.4323 -0.1231 -0.8933
vn -0.6714 -0.1577 -0.7241
vn -0.9115 -0.2273 -0.3428
vn -0.8297 -0.2570 0.4955
vn -0.2437 -0.1060 0.9640
vn -0.0958 -0.0216 0.9952
vn 0.0421 0.1455 0.9885
vn 0.1223 0.3410 0.9321
vn 0.1883 0.5753 0.7960
vn 0.2776 0.7881 0.5495
vn 0.4771 0.8389 0.2618
vn 0.3055 0.6115 0.7299
vn 0.4520 0.8777 -0.1594
vn 0.3540 0.7185 -0.5987
vn 0.2489 0.5060 -0.8258
vn 0.0715 0.1090 -0.9915
vn -0.1409 -0.1312 -0.9813
vn -0.4340 -0.2785 -0.8568
vn -0.6175 -0.3351 -0.7116
vn -0.8745 -0.3317 -0.3539
vn -0.8235 -0.3619 0.4369
vn -0.2869 -0.1234 0.9500
vn -0.1471 0.0113 0.9891
vn -0.0428 0.1774 0.9832
vn 0.0369 0.3067 0.9511
vn 0.1429 0.4290 0.8919
vn -0.0036 -0.9990 -0.0454
vn -0.0152 -0.9995 -0.0289
vn 0.0098 -0.9987 -0.0500
vn -0.0304 -0.9992 -0.0260
vn -0.0652 -0.9979 -0.0061
vn -0.4052 -0.9129 -0.0501
vn -0.3720 -0.9061 0.2017
vn -0.0338 -0.9847 0.1712
vn -0.0144 -0.9869 0.1609
vn -0.0057 -0.9940 0.1091
vn -0.0047 -0.9936 0.1125
vn 0.0044 -0.9908 0.1356
vn 0.0419 -0.9897 0.1366
vn 0.5244 0.7759 0.3508
vn 0.5466 0.8198 -0.1709
vn 0.3283 0.6806 -0.6550
vn 0.6159 0.1203 0.7786
vn 0.5700 0.8053 0.1630
vn 0.5683 0.8094 -0.1482
vn 0.5260 0.5611 -0.6392
vn 0.0384 -0.9937 -0.1056
vn 0.1582 -0.8679 -0.4709
vn 0.4207 -0.8998 -0.1156
vn -0.0179 -0.9092 0.4160
vn 0.2402 -0.9508 0.1956
vn -0.5013 -0.5655 -0.6549
vn -0.4421 -0.5532 -0.7061
vn 0.5454 -0.5545 -0.6286
vn -0.6950 -0.6584 -0.2888
vn -0.6592 -0.6437 -0.3888
vn -0.6632 -0.6347 -0.3966
usemtl lambert2SG
s off
f 149/1/1 148/2/1 137/3/1 136/4/1 150/5/1 152/6/1 151/7/1 153/8/1 154/9/1 155/10/1 156/11/1 158/12/1 159/13/1 160/14/1 157/15/1 145/16/1 143/17/1 144/18/1 142/19/1 141/20/1 140/21/1 139/22/1 138/23/1 146/24/1 147/25/1
s 1
f 1/26/2 155/27/3 154/28/4 2/29/5
f 2/29/5 154/28/4 153/30/6 3/31/7
f 5/32/8 4/33/9 151/34/10 152/35/11
f 6/36/12 5/32/8 152/35/11 150/37/13
f 8/38/14 9/39/15 7/40/16 137/41/17 148/42/18
f 6/36/12 7/40/16 9/39/15 10/43/19
f 10/43/19 11/44/20 5/32/8 6/36/12
f 11/44/20 12/45/21 4/33/9 5/32/8
f 3/31/7 4/33/9 12/45/21 13/46/22
f 2/29/5 3/31/7 13/46/22 14/47/23
f 14/47/23 15/48/24 1/26/2 2/29/5
f 18/49/25 16/50/26 15/48/24 14/47/23
f 8/51/14 149/52/27 147/53/28 19/54/29 20/55/30
f 21/56/31 9/57/15 8/51/14 20/55/30
f 10/58/19 9/57/15 21/56/31 22/59/32
f 22/59/32 23/60/33 11/61/20 10/58/19
f 23/60/33 24/62/34 12/63/21 11/61/20
f 24/62/34 25/64/35 13/65/22 12/63/21
f 14/66/23 13/65/22 25/64/35 26/67/36
f 18/68/25 14/66/23 26/67/36 27/69/37
f 18/68/25 27/69/37 28/70/38 17/71/39
f 28/72/38 29/73/40 143/74/41 145/75/42 17/76/39
f 30/77/43 142/78/44 144/79/45
f 31/80/46 32/81/47 33/82/48 34/83/49
f 34/83/49 33/82/48 35/84/50 36/85/51
f 37/86/52 21/56/31 20/55/30 38/87/53
f 39/88/54 40/89/55 37/86/52 41/90/56
f 39/88/54 42/91/57 43/92/58 44/93/59
f 44/93/59 43/92/58 45/94/60 46/95/61
f 46/95/61 45/94/60 47/96/62 48/97/63
f 48/97/63 47/96/62 49/98/64 50/99/65
f 50/99/65 49/98/64 51/100/66 52/101/67
f 52/101/67 51/100/66 53/102/68 54/103/69
f 54/104/69 53/105/68 55/106/70 56/107/71
f 56/107/71 55/106/70 57/108/72 58/109/73
f 58/109/73 57/108/72 59/110/74 60/111/75
f 60/111/75 59/110/74 61/112/76 62/113/77
f 62/113/77 61/112/76 63/114/78 64/115/79
f 64/115/79 63/114/78 32/81/47 31/80/46
f 36/85/51 35/84/50 65/116/80 41/90/56
f 40/89/55 22/59/32 21/56/31 37/86/52
f 66/117/81 23/60/33 22/59/32 40/89/55
f 67/118/82 24/62/34 23/60/33 66/117/81
f 68/119/83 25/64/35 24/62/34 67/118/82
f 69/120/84 26/67/36 25/64/35 68/119/83
f 70/121/85 27/69/37 26/67/36 69/120/84
f 71/122/86 28/70/38 27/69/37 70/121/85
f 72/123/87 29/73/40 28/72/38 71/124/86
f 73/125/88 30/77/43 29/73/40 72/123/87
f 74/126/89 141/127/90 142/78/44 30/77/43 73/125/88
f 75/128/91 140/129/92 141/127/90 74/126/89
f 76/130/93 139/131/94 140/129/92 75/128/91
f 77/132/95 138/133/96 139/131/94 76/130/93
f 78/134/97 19/54/29 146/135/98 138/133/96 77/132/95
f 38/87/53 20/55/30 19/54/29 78/134/97
f 41/90/56 65/116/80 42/91/57 39/88/54
f 44/93/59 66/117/81 40/89/55 39/88/54
f 46/95/61 67/118/82 66/117/81 44/93/59
f 48/97/63 68/119/83 67/118/82 46/95/61
f 50/99/65 69/120/84 68/119/83 48/97/63
f 52/101/67 70/121/85 69/120/84 50/99/65
f 54/103/69 71/122/86 70/121/85 52/101/67
f 56/107/71 72/123/87 71/124/86 54/104/69
f 58/109/73 73/125/88 72/123/87 56/107/71
f 60/111/75 74/126/89 73/125/88 58/109/73
f 62/113/77 75/128/91 74/126/89 60/111/75
f 64/115/79 76/130/93 75/128/91 62/113/77
f 31/80/46 77/132/95 76/130/93 64/115/79
f 34/83/49 78/134/97 77/132/95 31/80/46
f 36/85/51 38/87/53 78/134/97 34/83/49
f 41/90/56 37/86/52 38/87/53 36/85/51
f 79/136/99 80/137/100 65/138/80 35/139/50
f 42/140/57 65/138/80 80/137/100 81/141/101
f 81/141/101 82/142/102 43/143/58 42/140/57
f 83/144/103 45/145/60 43/143/58 82/142/102
f 47/146/62 45/145/60 83/144/103 84/147/104
f 85/148/105 49/149/64 47/146/62 84/147/104
f 86/150/106 51/151/66 49/149/64 85/148/105
f 86/150/106 87/152/107 53/153/68 51/151/66
f 53/154/68 87/155/107 88/156/108 55/157/70
f 88/156/108 89/158/109 57/159/72 55/157/70
f 59/160/74 57/159/72 89/158/109 90/161/110
f 91/162/111 61/163/76 59/160/74 90/161/110
f 92/164/112 63/165/78 61/163/76 91/162/111
f 93/166/113 32/167/47 63/165/78 92/164/112
f 94/168/114 33/169/48 32/167/47 93/166/113
f 35/139/50 33/169/48 94/168/114 79/136/99
f 95/170/115 79/136/99 94/168/114 96/171/116
f 79/136/99 95/170/115 97/172/117 80/137/100
f 97/172/117 98/173/118 81/141/101 80/137/100
f 99/174/119 82/142/102 81/141/101 98/173/118
f 99/174/119 100/175/120 83/144/103 82/142/102
f 100/175/120 101/176/121 84/147/104 83/144/103
f 102/177/122 85/148/105 84/147/104 101/176/121
f 85/148/105 102/177/122 103/178/123 86/150/106
f 86/150/106 103/178/123 104/179/124 87/152/107
f 87/155/107 104/180/124 105/181/125 88/156/108
f 106/182/126 89/158/109 88/156/108 105/181/125
f 107/183/127 90/161/110 89/158/109 106/182/126
f 90/161/110 107/183/127 108/184/128 91/162/111
f 109/185/129 92/164/112 91/162/111 108/184/128
f 110/186/130 93/166/113 92/164/112 109/185/129
f 93/166/113 110/186/130 96/171/116 94/168/114
f 100/175/120 111/187/131 112/188/132 101/176/121
f 111/187/131 100/175/120 99/174/119 113/189/133
f 114/190/134 102/177/122 101/176/121 112/188/132
f 103/178/123 102/177/122 114/190/134 115/191/135
f 115/191/135 116/192/136 104/179/124 103/178/123
f 116/193/136 117/194/137 105/181/125 104/180/124
f 106/182/126 118/195/138 119/196/139 107/183/127
f 117/194/137 118/195/138 106/182/126 105/181/125
f 120/197/140 109/185/129 108/184/128 121/198/141
f 107/183/127 119/196/139 121/198/141 108/184/128
f 122/199/142 110/186/130 109/185/129 120/197/140
f 123/200/143 96/171/116 110/186/130 122/199/142
f 124/201/144 95/170/115 96/171/116 123/200/143
f 95/170/115 124/201/144 125/202/145 97/172/117
f 125/202/145 126/203/146 98/173/118 97/172/117
f 126/203/146 113/189/133 99/174/119 98/173/118
f 127/204/147 124/201/144 123/200/143
f 128/205/148 129/206/149 125/202/145 124/201/144
f 130/207/150 131/208/151 113/189/133 126/203/146
f 132/209/152 133/210/153 125/202/145 129/206/149
f 126/203/146 125/202/145 133/210/153
f 133/210/153 130/207/150 126/203/146
f 129/206/149 128/205/148 134/211/154 132/209/152
f 124/201/144 135/212/155 134/211/154 128/205/148
f 124/201/144 127/204/147 135/212/155
f 117/194/137 116/193/136 115/213/135 118/195/138
f 115/213/135 114/214/134 119/196/139 118/195/138
f 112/215/132 121/198/141 119/196/139 114/214/134
f 111/216/131 120/197/140 121/198/141 112/215/132
f 111/216/131 113/189/133 122/199/142 120/197/140
f 113/189/133 131/208/151 123/200/143 122/199/142
f 132/209/152 134/211/154 135/212/155 133/210/153
f 131/208/151 130/207/150 133/210/153
f 123/200/143 135/212/155 127/204/147
f 123/200/143 131/208/151 133/210/153 135/212/155
f 158/217/156 156/218/157 1/26/2 15/48/24 16/50/26
f 148/42/18 149/219/27 8/38/14
f 150/37/13 136/220/158 7/40/16 6/36/12
f 147/53/28 146/135/98 19/54/29
f 136/220/158 137/41/17 7/40/16
f 144/79/45 143/74/41 29/73/40 30/77/43
f 156/218/157 155/27/3 1/26/2
f 157/221/159 160/222/160 159/223/161 16/50/26 18/49/25 17/224/39
f 153/30/6 151/34/10 4/33/9 3/31/7
f 159/223/161 158/217/156 16/50/26
f 145/225/42 157/221/159 17/224/39
