# Blender v2.80 (sub 74) OBJ File: ''
# www.blender.org
mtllib rLeg.mtl
o Fox_Final_Low.001
v 0.471226 0.657320 0.535789
v 0.384778 0.655210 0.578018
v 0.251574 0.667832 0.635615
v -0.023294 0.670378 0.675136
v -0.146884 0.658778 0.657627
v -0.328018 0.658023 0.613664
v -0.637536 0.449771 0.314841
v -0.297439 0.428623 0.494655
v -0.140843 0.432074 0.534920
v -0.015605 0.444836 0.549352
v 0.215865 0.448426 0.508373
v 0.322068 0.441750 0.460605
v 0.385967 0.437940 0.424187
v 0.527512 0.423818 0.308904
v 0.657164 0.414247 0.137177
v 0.609619 0.214287 -0.142820
v 0.535810 0.204124 0.093547
v 0.424081 0.205844 0.233036
v 0.300028 0.208371 0.323528
v 0.246071 0.213512 0.353922
v 0.172211 0.214836 0.383836
v 0.001775 0.214973 0.415027
v -0.106792 0.211934 0.408159
v -0.249189 0.201141 0.366826
v -0.553557 0.206974 0.163625
v -0.750203 0.233662 -0.097672
v -0.274972 -0.022788 -0.506331
v -0.492579 0.005349 -0.444262
v -0.620150 0.070810 -0.176059
v -0.502417 0.110681 0.118806
v 0.470806 0.105286 -0.375549
v 0.531128 0.075343 -0.173643
v 0.488341 0.068623 0.036022
v 0.391856 0.069014 0.171852
v 0.272288 0.071238 0.263623
v 0.215087 0.073600 0.293654
v 0.147489 0.072566 0.318101
v 0.012014 0.073098 0.339150
v -0.116180 0.055660 0.317199
v -0.362545 -0.001966 0.158341
v -0.518326 -0.054015 -0.162690
v -0.432362 -0.099722 -0.383662
v -0.324686 -0.135411 -0.433097
v -0.057220 -0.040891 -0.502673
v 0.126036 -0.001553 -0.493895
v 0.305031 0.047237 -0.460633
v 0.330172 -0.483813 -0.287284
v 0.382121 -0.481868 -0.220191
v 0.396063 -0.626236 -0.242861
v 0.337962 -0.638836 -0.305512
v 0.387772 -0.477832 -0.108667
v 0.419260 -0.619801 -0.129414
v 0.363088 -0.165002 0.063788
v 0.419840 -0.161319 -0.037700
v 0.319328 -0.496419 0.013307
v 0.359625 -0.482981 -0.041644
v 0.285896 -0.171141 0.141182
v 0.266750 -0.484069 0.062233
v 0.300946 -0.630501 0.045603
v 0.369823 -0.645822 -0.002568
v 0.197808 -0.496026 0.100850
v 0.219944 -0.644805 0.082681
v 0.075496 -0.500410 0.120962
v 0.090261 -0.648162 0.091013
v -0.033630 -0.510358 0.092806
v -0.020573 -0.655860 0.057095
v -0.188528 -0.521471 -0.005029
v -0.160420 -0.656290 -0.029933
v -0.316971 -0.522365 -0.185287
v -0.285517 -0.644323 -0.188033
v -0.293021 -0.527109 -0.308100
v -0.268643 -0.635984 -0.296883
v -0.225257 -0.524484 -0.356567
v -0.202997 -0.621211 -0.343672
v 0.006585 -0.486352 -0.392254
v 0.022025 -0.597450 -0.375149
v 0.141573 -0.493610 -0.370527
v 0.149779 -0.618791 -0.363931
v 0.249994 -0.491718 -0.335772
v 0.252269 -0.631518 -0.342475
v 0.399472 -0.626515 -0.061311
v 0.232551 -0.165339 0.179869
v 0.165905 -0.170899 0.208850
v 0.039874 -0.172390 0.229276
v -0.075393 -0.186558 0.205419
v -0.275632 -0.222535 0.075683
v -0.412424 -0.249729 -0.175024
v -0.359487 -0.280125 -0.341080
v -0.278363 -0.302786 -0.391012
v -0.029132 -0.232568 -0.443421
v 0.130103 -0.211165 -0.422990
v 0.269739 -0.177885 -0.379172
v 0.377796 -0.136809 -0.311903
v 0.434424 -0.157416 -0.191564
v 0.530433 -0.657039 -0.199172
v 0.523181 -0.676210 -0.075579
v 0.505326 -0.702997 -0.011278
v 0.381427 -0.725249 0.058672
v 0.268267 -0.737492 0.090225
v 0.116964 -0.738621 0.088387
v -0.012193 -0.736436 0.045999
v -0.149472 -0.736169 -0.041422
v -0.267731 -0.715887 -0.184696
v -0.251022 -0.703874 -0.293688
v -0.183030 -0.706162 -0.334703
v 0.038921 -0.707273 -0.370072
v 0.159928 -0.703892 -0.372246
v 0.258040 -0.703581 -0.368336
v 0.355461 -0.694506 -0.349074
v 0.474417 -0.682240 -0.308595
v 0.623935 -0.708243 -0.237118
v 0.539982 -0.740682 -0.341337
v 0.629547 -0.724074 -0.098335
v 0.601492 -0.735939 -0.008801
v 0.461360 -0.771368 0.074501
v 0.311908 -0.783968 0.104674
v 0.137487 -0.785322 0.094392
v -0.007107 -0.789558 0.044700
v -0.139821 -0.789025 -0.040922
v -0.247672 -0.772478 -0.173632
v -0.237282 -0.763598 -0.286688
v -0.171727 -0.765412 -0.329908
v 0.041166 -0.756958 -0.374241
v 0.157154 -0.760778 -0.383965
v 0.265915 -0.762080 -0.386488
v 0.383713 -0.755442 -0.378279
v 0.128344 -0.816700 0.073800
v 0.315013 -0.817802 0.091747
v 0.453149 -0.816136 0.083879
v 0.001748 -0.815292 0.036420
v -0.166385 -0.812067 -0.098505
v -0.220326 -0.804817 -0.186569
v -0.219211 -0.795977 -0.276722
v 0.026677 -0.794595 -0.373626
v -0.169574 -0.798719 -0.316830
v 0.264925 -0.793562 -0.395573
v 0.160160 -0.793107 -0.389736
v 0.386839 -0.797598 -0.392036
v 0.596715 -0.804975 -0.356962
v 0.661409 -0.735796 -0.243151
v 0.673561 -0.747030 -0.110679
v 0.659814 -0.756322 -0.004931
v 0.713111 -0.808209 -0.307734
v 0.803869 -0.809778 -0.203535
v 0.799459 -0.807226 -0.158116
v 0.729737 -0.780452 -0.012448
v 0.695378 -0.812647 0.023444
v 0.769965 -0.822016 -0.151755
v 0.688291 -0.802204 -0.084615
v 0.755703 -0.818911 -0.196614
v 0.668608 -0.799184 -0.246673
v 0.693961 0.467033 0.144294
v -0.352385 0.795831 0.664117
v -0.621517 0.682337 0.484685
v -0.659214 0.661160 0.451205
v -0.817578 0.470537 0.149834
v 0.683484 0.415196 0.062341
v 0.661646 0.291014 -0.133987
v -0.832285 0.402311 0.041971
v 0.603743 0.227963 -0.233670
v 0.494635 0.134387 -0.381611
v -0.780390 0.247423 -0.202904
v -0.620023 0.104374 -0.429062
v 0.314129 0.073335 -0.478132
v 0.123639 0.044894 -0.523098
v -0.092290 0.031385 -0.544455
v -0.129696 0.031945 -0.543570
v -0.286058 0.017755 -0.566004
v -0.506773 0.041423 -0.528585
v 0.261637 0.839899 0.733787
v 0.508504 0.735814 0.569231
v 0.608685 0.641631 0.420330
v 0.635457 0.616226 0.380166
v 0.417831 0.785760 0.648194
v -0.024951 0.857574 0.761731
v -0.156421 0.839491 0.733142
vt 0.709105 0.976758
vt 0.709322 0.978922
vt 0.712575 0.984969
vt 0.713392 0.985640
vt 0.719304 0.989241
vt 0.723685 0.990626
vt 0.726643 0.991199
vt 0.733160 0.990638
vt 0.736753 0.988921
vt 0.738851 0.987337
vt 0.741195 0.984349
vt 0.741820 0.983543
vt 0.743256 0.978811
vt 0.743062 0.977166
vt 0.742673 0.973227
vt 0.741432 0.971227
vt 0.739082 0.968259
vt 0.735124 0.966322
vt 0.730918 0.965420
vt 0.726135 0.964991
vt 0.725304 0.965009
vt 0.721847 0.964559
vt 0.716914 0.965310
vt 0.714310 0.967307
vt 0.710518 0.971844
vt 0.444959 0.271398
vt 0.447025 0.266017
vt 0.454755 0.267072
vt 0.449706 0.275046
vt 0.465394 0.270733
vt 0.457010 0.279987
vt 0.470707 0.341501
vt 0.463158 0.318405
vt 0.478229 0.308964
vt 0.487695 0.327499
vt 0.487092 0.331229
vt 0.458920 0.309471
vt 0.472460 0.298965
vt 0.455471 0.302626
vt 0.468630 0.292158
vt 0.446127 0.292070
vt 0.440667 0.287750
vt 0.436999 0.285142
vt 0.395288 0.289533
vt 0.395849 0.283970
vt 0.408948 0.275686
vt 0.413960 0.276052
vt 0.410702 0.289795
vt 0.426885 0.279987
vt 0.420572 0.293269
vt 0.427867 0.298325
vt 0.430656 0.300690
vt 0.433994 0.304174
vt 0.440955 0.311643
vt 0.444120 0.317101
vt 0.446733 0.325315
vt 0.449180 0.347327
vt 0.444793 0.368253
vt 0.472253 0.357721
vt 0.464175 0.364113
vt 0.404117 0.366324
vt 0.415186 0.374045
vt 0.400248 0.370946
vt 0.426388 0.364988
vt 0.441109 0.374795
vt 0.440671 0.347230
vt 0.377879 0.553452
vt 0.378113 0.557362
vt 0.362912 0.570754
vt 0.354417 0.569347
vt 0.356559 0.553059
vt 0.331888 0.568667
vt 0.335293 0.553118
vt 0.318768 0.552634
vt 0.315451 0.568089
vt 0.301044 0.567057
vt 0.303798 0.551572
vt 0.295127 0.566911
vt 0.297357 0.551024
vt 0.287567 0.565865
vt 0.290256 0.549840
vt 0.271111 0.562602
vt 0.276767 0.547002
vt 0.261096 0.559257
vt 0.264819 0.541347
vt 0.222745 0.527813
vt 0.241045 0.523047
vt 0.201994 0.503044
vt 0.216781 0.495655
vt 0.475902 0.478793
vt 0.490050 0.487376
vt 0.465255 0.505897
vt 0.456688 0.494855
vt 0.443795 0.512220
vt 0.444028 0.497716
vt 0.432914 0.523448
vt 0.429385 0.524785
vt 0.422513 0.518426
vt 0.364132 0.489501
vt 0.355392 0.491300
vt 0.354735 0.476003
vt 0.362153 0.473345
vt 0.343649 0.493024
vt 0.344669 0.477973
vt 0.327115 0.526845
vt 0.339667 0.527197
vt 0.328621 0.491628
vt 0.335881 0.492911
vt 0.315434 0.525678
vt 0.320944 0.492645
vt 0.324746 0.477716
vt 0.332268 0.475952
vt 0.312716 0.490696
vt 0.316555 0.475734
vt 0.300028 0.487844
vt 0.304530 0.473267
vt 0.289164 0.483162
vt 0.294219 0.468666
vt 0.272519 0.473902
vt 0.279557 0.461385
vt 0.253610 0.460971
vt 0.261747 0.451294
vt 0.434307 0.451227
vt 0.425042 0.459892
vt 0.417761 0.451055
vt 0.425034 0.442551
vt 0.418099 0.464732
vt 0.411911 0.456639
vt 0.398192 0.478600
vt 0.392658 0.468518
vt 0.384763 0.482700
vt 0.380540 0.470746
vt 0.373482 0.486393
vt 0.370765 0.472113
vt 0.338344 0.477745
vt 0.308365 0.525722
vt 0.300779 0.524151
vt 0.287577 0.521203
vt 0.276281 0.515989
vt 0.255481 0.501827
vt 0.233851 0.481593
vt 0.442260 0.479882
vt 0.456500 0.468642
vt 0.432641 0.483325
vt 0.411535 0.501205
vt 0.396414 0.509492
vt 0.407095 0.529241
vt 0.382813 0.517884
vt 0.392584 0.540963
vt 0.370929 0.525870
vt 0.356380 0.526457
vt 0.672261 0.635545
vt 0.669418 0.626449
vt 0.677592 0.617858
vt 0.681173 0.624734
vt 0.686265 0.613158
vt 0.689429 0.622048
vt 0.690859 0.606188
vt 0.698262 0.615563
vt 0.702641 0.606059
vt 0.695786 0.599248
vt 0.699916 0.588065
vt 0.706807 0.593063
vt 0.710916 0.581528
vt 0.704221 0.578402
vt 0.716819 0.568062
vt 0.710460 0.564506
vt 0.719411 0.548412
vt 0.724228 0.552973
vt 0.716783 0.713946
vt 0.706168 0.712423
vt 0.708266 0.706675
vt 0.718642 0.707233
vt 0.698260 0.709275
vt 0.702188 0.702604
vt 0.681977 0.694313
vt 0.688954 0.687131
vt 0.682521 0.677805
vt 0.676215 0.682268
vt 0.678216 0.669267
vt 0.671705 0.671124
vt 0.674252 0.659969
vt 0.667921 0.659051
vt 0.672947 0.648390
vt 0.664211 0.645852
vt 0.676747 0.638294
vt 0.678341 0.648986
vt 0.683501 0.628139
vt 0.691161 0.625072
vt 0.704052 0.624029
vt 0.706086 0.611100
vt 0.710189 0.596207
vt 0.715261 0.583669
vt 0.720671 0.570855
vt 0.727571 0.557316
vt 0.710450 0.701933
vt 0.720495 0.701166
vt 0.705139 0.698280
vt 0.692600 0.684454
vt 0.687609 0.675941
vt 0.683791 0.667860
vt 0.680493 0.659216
vt 0.713672 0.596083
vt 0.709303 0.612152
vt 0.709985 0.627020
vt 0.717509 0.584906
vt 0.725764 0.567589
vt 0.730671 0.559794
vt 0.719418 0.696637
vt 0.711637 0.698920
vt 0.696309 0.683656
vt 0.707566 0.696316
vt 0.687025 0.667453
vt 0.690370 0.674592
vt 0.684657 0.659377
vt 0.683515 0.647617
vt 0.678150 0.639226
vt 0.684873 0.629933
vt 0.690477 0.626847
vt 0.681841 0.642076
vt 0.681098 0.635343
vt 0.682832 0.635368
vt 0.689946 0.629599
vt 0.691274 0.630448
vt 0.684024 0.635196
vt 0.688078 0.633782
vt 0.682763 0.637253
vt 0.683456 0.640580
vt 0.725492 0.688156
vt 0.729783 0.667791
vt 0.727237 0.655262
vt 0.719271 0.638341
vt 0.486904 0.303351
vt 0.478445 0.282806
vt 0.414409 0.272279
vt 0.386352 0.357354
vt 0.390714 0.354802
vt 0.431479 0.267004
vt 0.482486 0.290402
vt 0.410141 0.533848
vt 0.393950 0.543967
vt 0.434824 0.266860
vt 0.389090 0.291496
vt 0.383032 0.345021
vn 0.0000 0.8451 -0.5346
vn 0.4533 -0.5040 0.7352
vn 0.4221 -0.5193 0.7431
vn 0.3220 -0.5056 0.8004
vn 0.3351 -0.5119 0.7910
vn 0.1652 -0.4842 0.8592
vn 0.1850 -0.4893 0.8523
vn -0.5364 -0.5357 0.6522
vn -0.3657 -0.5155 0.7749
vn -0.2806 -0.4296 0.8583
vn -0.4072 -0.4782 0.7782
vn -0.4609 -0.4917 0.7388
vn -0.1446 -0.4928 0.8580
vn -0.1385 -0.4422 0.8861
vn 0.0761 -0.4951 0.8655
vn -0.0270 -0.4617 0.8866
vn 0.2040 -0.4997 0.8419
vn 0.3486 -0.5102 0.7862
vn 0.4758 -0.5182 0.7106
vn 0.8467 -0.5320 0.0139
vn 0.8180 -0.5543 0.1537
vn 0.7924 -0.5543 0.2547
vn 0.7280 -0.5458 0.4148
vn 0.7714 -0.5078 0.3835
vn 0.5833 -0.5232 0.6213
vn 0.6075 -0.4836 0.6302
vn 0.4852 -0.4748 0.7343
vn 0.3576 -0.4742 0.8045
vn 0.2113 -0.4773 0.8530
vn 0.0765 -0.4878 0.8696
vn -0.2300 -0.4916 0.8399
vn -0.3677 -0.6015 0.7092
vn -0.5456 -0.6177 0.5663
vn -0.7363 -0.6361 0.2306
vn -0.6228 -0.5869 0.5174
vn -0.6398 -0.6174 0.4577
vn -0.6080 -0.7559 -0.2427
vn -0.6438 -0.7645 -0.0333
vn -0.3426 -0.9016 -0.2641
vn -0.7147 -0.6922 0.1002
vn -0.7299 -0.6835 0.0125
vn -0.5966 -0.6190 0.5108
vn 0.7153 -0.4958 -0.4925
vn 0.7721 -0.5441 -0.3283
vn 0.8194 -0.5375 -0.1992
vn 0.8932 -0.4411 -0.0872
vn 0.8507 -0.4120 0.3265
vn 0.6721 -0.3999 0.6232
vn 0.5317 -0.3951 0.7492
vn 0.3869 -0.3954 0.8331
vn 0.2084 -0.4118 0.8871
vn 0.0321 -0.4370 0.8989
vn -0.3548 -0.4237 0.8334
vn -0.5742 -0.4656 0.6734
vn -0.8014 -0.5612 0.2069
vn -0.7356 -0.5298 -0.4222
vn -0.0824 -0.7019 -0.7075
vn -0.2552 -0.3879 -0.8857
vn 0.0254 -0.6296 -0.7765
vn 0.1172 -0.5347 -0.8369
vn 0.0146 -0.3780 -0.9257
vn 0.6888 -0.0706 -0.7215
vn 0.9576 -0.0523 -0.2833
vn 0.6707 0.5996 -0.4365
vn 0.4709 0.3867 -0.7929
vn 0.9846 -0.0693 0.1602
vn 0.7643 0.6441 0.0322
vn 0.7660 -0.2848 0.5763
vn 0.9269 -0.2725 0.2581
vn 0.7171 -0.0942 0.6905
vn 0.8493 -0.0948 0.5193
vn 0.6286 -0.2898 0.7217
vn 0.5357 -0.1647 0.8282
vn 0.4655 0.2034 0.8613
vn 0.5692 0.4762 0.6703
vn 0.2734 -0.2221 0.9359
vn 0.1983 0.0095 0.9801
vn -0.0169 -0.2833 0.9589
vn -0.0912 -0.1398 0.9860
vn -0.3831 -0.3217 0.8659
vn -0.4156 -0.2168 0.8833
vn -0.6583 -0.3249 0.6790
vn -0.6611 -0.2282 0.7148
vn -0.8981 -0.3246 0.2968
vn -0.9009 -0.2482 0.3561
vn -0.8504 -0.2874 -0.4408
vn -0.8538 -0.2468 -0.4584
vn -0.2419 -0.2077 -0.9478
vn -0.2349 -0.1559 -0.9594
vn -0.0203 -0.1775 -0.9839
vn -0.0501 -0.1024 -0.9935
vn 0.2223 -0.1313 -0.9661
vn 0.1434 0.0177 -0.9895
vn 0.4105 -0.0941 -0.9070
vn 0.3050 0.1621 -0.9385
vn 0.7020 0.5662 0.4320
vn 0.4715 -0.3012 0.8288
vn 0.2495 -0.3285 0.9109
vn 0.0073 -0.3652 0.9309
vn -0.3446 -0.3994 0.8495
vn -0.6370 -0.4119 0.6516
vn -0.8738 -0.4181 0.2484
vn -0.8275 -0.3697 -0.4226
vn -0.2455 -0.2614 -0.9335
vn -0.0205 -0.2451 -0.9693
vn 0.2279 -0.2376 -0.9443
vn 0.1901 -0.4079 -0.8930
vn 0.4340 -0.2548 -0.8641
vn 0.4127 -0.4514 -0.7911
vn 0.7321 -0.2960 -0.6136
vn 0.9483 -0.2675 -0.1708
vn 0.3951 0.9112 -0.1171
vn 0.4139 0.8758 0.2484
vn 0.3275 0.7591 0.5627
vn 0.2845 0.5362 0.7947
vn 0.1136 0.2347 0.9654
vn -0.1425 0.0019 0.9898
vn -0.4323 -0.1231 0.8933
vn -0.6714 -0.1577 0.7242
vn -0.9115 -0.2273 0.3428
vn -0.8297 -0.2570 -0.4955
vn -0.2437 -0.1060 -0.9640
vn -0.0958 -0.0216 -0.9952
vn 0.0421 0.1455 -0.9885
vn 0.1223 0.3410 -0.9321
vn 0.1883 0.5753 -0.7960
vn 0.2776 0.7881 -0.5495
vn 0.4771 0.8389 -0.2618
vn 0.3055 0.6115 -0.7299
vn 0.4520 0.8777 0.1594
vn 0.3540 0.7185 0.5987
vn 0.2489 0.5060 0.8258
vn 0.0715 0.1090 0.9915
vn -0.1409 -0.1312 0.9813
vn -0.4340 -0.2785 0.8568
vn -0.6175 -0.3351 0.7116
vn -0.8745 -0.3317 0.3539
vn -0.8235 -0.3618 -0.4369
vn -0.2869 -0.1234 -0.9500
vn -0.1471 0.0113 -0.9891
vn -0.0428 0.1774 -0.9832
vn 0.0369 0.3067 -0.9511
vn 0.1429 0.4290 -0.8919
vn -0.0153 -0.9995 0.0289
vn -0.0036 -0.9990 0.0454
vn 0.0098 -0.9987 0.0500
vn -0.0304 -0.9992 0.0260
vn -0.0652 -0.9979 0.0061
vn -0.4052 -0.9129 0.0501
vn -0.3720 -0.9061 -0.2017
vn -0.0144 -0.9869 -0.1609
vn -0.0338 -0.9847 -0.1712
vn -0.0057 -0.9940 -0.1091
vn -0.0046 -0.9936 -0.1125
vn 0.0043 -0.9908 -0.1356
vn 0.0420 -0.9897 -0.1365
vn 0.5241 0.7757 -0.3516
vn 0.5466 0.8198 0.1709
vn 0.3283 0.6806 0.6550
vn 0.6158 0.1203 -0.7786
vn 0.5700 0.8053 -0.1631
vn 0.5682 0.8094 0.1483
vn 0.5260 0.5610 0.6392
vn 0.0384 -0.9937 0.1056
vn 0.1582 -0.8679 0.4709
vn 0.4207 -0.8998 0.1157
vn -0.0179 -0.9092 -0.4160
vn 0.2402 -0.9508 -0.1957
vn -0.2877 -0.3989 0.8707
vn -0.0101 -0.4498 0.8930
vn 0.6980 -0.5649 0.4401
vn -0.0710 -0.8777 -0.4740
vn 0.5473 -0.5484 0.6322
vn -0.1571 -0.4064 0.9001
vn 0.2756 -0.5365 -0.7976
vn 0.4409 -0.5842 -0.6814
vn 0.4941 -0.5287 0.6902
usemtl lambert2SG
s off
f 159/1/1 156/2/1 155/3/1 154/4/1 153/5/1 176/6/1 175/7/1 170/8/1 174/9/1 171/10/1 172/11/1 173/12/1 152/13/1 157/14/1 158/15/1 160/16/1 161/17/1 164/18/1 165/19/1 166/20/1 167/21/1 168/22/1 169/23/1 163/24/1 162/25/1
s 1
f 1/26/2 171/27/3 174/28/4 2/29/5
f 2/29/5 174/28/4 170/30/6 3/31/7
f 7/32/8 8/33/9 6/34/10 154/35/11 155/36/12
f 8/33/9 9/37/13 5/38/14 6/34/10
f 9/37/13 10/39/15 4/40/16 5/38/14
f 4/40/16 10/39/15 11/41/17 3/31/7
f 12/42/18 2/29/5 3/31/7 11/41/17
f 13/43/19 1/26/2 2/29/5 12/42/18
f 16/44/20 158/45/21 157/46/22 15/47/23 17/48/24
f 17/48/24 15/47/23 14/49/25 18/50/26
f 13/43/19 19/51/27 18/50/26 14/49/25
f 19/51/27 13/43/19 12/42/18 20/52/28
f 20/52/28 12/42/18 11/41/17 21/53/29
f 10/39/15 22/54/30 21/53/29 11/41/17
f 9/37/13 23/55/31 22/54/30 10/39/15
f 23/55/31 9/37/13 8/33/9 24/56/32
f 7/32/8 25/57/33 24/56/32 8/33/9
f 26/58/34 25/57/33 7/32/8 156/59/35 159/60/36
f 28/61/37 163/62/38 169/63/39
f 28/61/37 29/64/40 26/58/34 162/65/41 163/62/38
f 26/58/34 29/64/40 30/66/42 25/57/33
f 30/66/42 23/55/31 24/56/32 25/57/33
f 31/67/43 161/68/44 160/69/45 16/70/20 32/71/46
f 17/72/24 33/73/47 32/71/46 16/70/20
f 34/74/48 33/73/47 17/72/24 18/75/26
f 19/76/27 35/77/49 34/74/48 18/75/26
f 35/77/49 19/76/27 20/78/28 36/79/50
f 36/79/50 20/78/28 21/80/29 37/81/51
f 37/81/51 21/80/29 22/82/30 38/83/52
f 23/84/31 39/85/53 38/83/52 22/82/30
f 30/86/42 40/87/54 39/85/53 23/84/31
f 30/86/42 29/88/40 41/89/55 40/87/54
f 41/90/55 29/91/40 28/92/37 42/93/56
f 28/92/37 27/94/57 43/95/58 42/93/56
f 43/95/58 27/94/57 167/96/59 166/97/60 44/98/61
f 47/99/62 48/100/63 49/101/64 50/102/65
f 48/100/63 51/103/66 52/104/67 49/101/64
f 53/105/68 54/106/69 33/73/47 34/74/48
f 55/107/70 56/108/71 53/105/68 57/109/72
f 55/107/70 58/110/73 59/111/74 60/112/75
f 58/110/73 61/113/76 62/114/77 59/111/74
f 61/113/76 63/115/78 64/116/79 62/114/77
f 63/115/78 65/117/80 66/118/81 64/116/79
f 65/117/80 67/119/82 68/120/83 66/118/81
f 67/119/82 69/121/84 70/122/85 68/120/83
f 69/123/84 71/124/86 72/125/87 70/126/85
f 71/124/86 73/127/88 74/128/89 72/125/87
f 73/127/88 75/129/90 76/130/91 74/128/89
f 75/129/90 77/131/92 78/132/93 76/130/91
f 77/131/92 79/133/94 80/134/95 78/132/93
f 79/133/94 47/99/62 50/102/65 80/134/95
f 51/103/66 56/108/71 81/135/96 52/104/67
f 57/109/72 53/105/68 34/74/48 35/77/49
f 82/136/97 57/109/72 35/77/49 36/79/50
f 83/137/98 82/136/97 36/79/50 37/81/51
f 84/138/99 83/137/98 37/81/51 38/83/52
f 85/139/100 84/138/99 38/83/52 39/85/53
f 86/140/101 85/139/100 39/85/53 40/87/54
f 87/141/102 86/140/101 40/87/54 41/89/55
f 88/142/103 87/143/102 41/90/55 42/93/56
f 89/144/104 88/142/103 42/93/56 43/95/58
f 90/145/105 89/144/104 43/95/58 44/98/61
f 91/146/106 90/145/105 44/98/61 45/147/107
f 92/148/108 91/146/106 45/147/107 46/149/109
f 93/150/110 92/148/108 46/149/109 31/67/43
f 94/151/111 93/150/110 31/67/43 32/71/46
f 54/106/69 94/151/111 32/71/46 33/73/47
f 56/108/71 55/107/70 60/112/75 81/135/96
f 58/110/73 55/107/70 57/109/72 82/136/97
f 61/113/76 58/110/73 82/136/97 83/137/98
f 63/115/78 61/113/76 83/137/98 84/138/99
f 65/117/80 63/115/78 84/138/99 85/139/100
f 67/119/82 65/117/80 85/139/100 86/140/101
f 69/121/84 67/119/82 86/140/101 87/141/102
f 71/124/86 69/123/84 87/143/102 88/142/103
f 73/127/88 71/124/86 88/142/103 89/144/104
f 75/129/90 73/127/88 89/144/104 90/145/105
f 77/131/92 75/129/90 90/145/105 91/146/106
f 79/133/94 77/131/92 91/146/106 92/148/108
f 47/99/62 79/133/94 92/148/108 93/150/110
f 48/100/63 47/99/62 93/150/110 94/151/111
f 51/103/66 48/100/63 94/151/111 54/106/69
f 56/108/71 51/103/66 54/106/69 53/105/68
f 95/152/112 52/153/67 81/154/96 96/155/113
f 60/156/75 97/157/114 96/155/113 81/154/96
f 97/157/114 60/156/75 59/158/74 98/159/115
f 99/160/116 98/159/115 59/158/74 62/161/77
f 64/162/79 100/163/117 99/160/116 62/161/77
f 101/164/118 100/163/117 64/162/79 66/165/81
f 102/166/119 101/164/118 66/165/81 68/167/83
f 102/166/119 68/167/83 70/168/85 103/169/120
f 70/170/85 72/171/87 104/172/121 103/173/120
f 104/172/121 72/171/87 74/174/89 105/175/122
f 76/176/91 106/177/123 105/175/122 74/174/89
f 107/178/124 106/177/123 76/176/91 78/179/93
f 108/180/125 107/178/124 78/179/93 80/181/95
f 109/182/126 108/180/125 80/181/95 50/183/65
f 110/184/127 109/182/126 50/183/65 49/185/64
f 52/153/67 95/152/112 110/184/127 49/185/64
f 111/186/128 112/187/129 110/184/127 95/152/112
f 95/152/112 96/155/113 113/188/130 111/186/128
f 113/188/130 96/155/113 97/157/114 114/189/131
f 115/190/132 114/189/131 97/157/114 98/159/115
f 115/190/132 98/159/115 99/160/116 116/191/133
f 116/191/133 99/160/116 100/163/117 117/192/134
f 118/193/135 117/192/134 100/163/117 101/164/118
f 101/164/118 102/166/119 119/194/136 118/193/135
f 102/166/119 103/169/120 120/195/137 119/194/136
f 103/173/120 104/172/121 121/196/138 120/197/137
f 122/198/139 121/196/138 104/172/121 105/175/122
f 123/199/140 122/198/139 105/175/122 106/177/123
f 106/177/123 107/178/124 124/200/141 123/199/140
f 125/201/142 124/200/141 107/178/124 108/180/125
f 126/202/143 125/201/142 108/180/125 109/182/126
f 109/182/126 110/184/127 112/187/129 126/202/143
f 116/191/133 117/192/134 127/203/144 128/204/145
f 128/204/145 129/205/146 115/190/132 116/191/133
f 130/206/147 127/203/144 117/192/134 118/193/135
f 119/194/136 131/207/148 130/206/147 118/193/135
f 131/207/148 119/194/136 120/195/137 132/208/149
f 132/209/149 120/197/137 121/196/138 133/210/150
f 122/198/139 123/199/140 134/211/151 135/212/152
f 133/210/150 121/196/138 122/198/139 135/212/152
f 136/213/153 137/214/154 124/200/141 125/201/142
f 123/199/140 124/200/141 137/214/154 134/211/151
f 138/215/155 136/213/153 125/201/142 126/202/143
f 139/216/156 138/215/155 126/202/143 112/187/129
f 140/217/157 139/216/156 112/187/129 111/186/128
f 111/186/128 113/188/130 141/218/158 140/217/157
f 141/218/158 113/188/130 114/189/131 142/219/159
f 142/219/159 114/189/131 115/190/132 129/205/146
f 143/220/160 139/216/156 140/217/157
f 144/221/161 140/217/157 141/218/158 145/222/162
f 146/223/163 142/219/159 129/205/146 147/224/164
f 148/225/165 145/222/162 141/218/158 149/226/166
f 142/219/159 149/226/166 141/218/158
f 149/226/166 142/219/159 146/223/163
f 145/222/162 148/225/165 150/227/167 144/221/161
f 140/217/157 144/221/161 150/227/167 151/228/168
f 140/217/157 151/228/168 143/220/160
f 133/210/150 135/212/152 131/229/148 132/209/149
f 131/229/148 135/212/152 134/211/151 130/230/147
f 127/231/144 130/230/147 134/211/151 137/214/154
f 128/232/145 127/231/144 137/214/154 136/213/153
f 128/232/145 136/213/153 138/215/155 129/205/146
f 129/205/146 138/215/155 139/216/156 147/224/164
f 148/225/165 149/226/166 151/228/168 150/227/167
f 147/224/164 149/226/166 146/223/163
f 139/216/156 143/220/160 151/228/168
f 139/216/156 151/228/168 149/226/166 147/224/164
f 153/233/169 154/35/11 6/34/10
f 170/30/6 175/234/170 4/40/16 3/31/7
f 157/46/22 152/235/171 15/47/23
f 169/63/39 168/236/172 27/237/57 28/61/37
f 152/235/171 173/238/173 14/49/25 15/47/23
f 175/234/170 176/239/174 5/38/14 4/40/16
f 165/240/175 164/241/176 46/149/109 45/147/107
f 159/60/36 162/65/41 26/58/34
f 155/36/12 156/59/35 7/32/8
f 166/97/60 165/240/175 45/147/107 44/98/61
f 176/239/174 153/233/169 6/34/10 5/38/14
f 164/241/176 161/68/44 31/67/43 46/149/109
f 172/242/177 171/27/3 1/26/2
f 173/238/173 172/242/177 1/26/2 13/43/19 14/49/25
f 160/243/45 158/45/21 16/44/20
f 168/236/172 167/244/59 27/237/57
