# This file uses centimeters as units for non-parametric coordinates.

mtllib anvil.mtl
g default
v -1.344700 0.000000 0.000000
v 0.000000 0.000000 0.000000
v -1.344700 0.450460 0.000000
v 0.000000 0.450460 0.000000
v -1.344700 0.450460 -1.344700
v 0.000000 0.450460 -1.344700
v -1.344700 0.000000 -1.344700
v 0.000000 0.000000 -1.344700
v -1.093605 0.559458 -0.272760
v -0.251094 0.559458 -0.272760
v -0.251094 0.559458 -1.115271
v -1.093605 0.559458 -1.115271
v -1.037253 0.775926 -0.329113
v -0.307447 0.775926 -0.329113
v -0.307447 0.775926 -1.058918
v -1.037253 0.775926 -1.058918
v -1.128827 1.036254 -0.237538
v -0.215873 1.036254 -0.237538
v -0.215873 1.036254 -1.150493
v -1.128827 1.036254 -1.150493
v -1.361657 1.277583 0.127502
v 0.016957 1.338816 0.127502
v 0.016957 1.338816 -1.515532
v -1.361657 1.277583 -1.515532
v -1.361657 2.122096 0.127502
v 0.016957 2.122096 0.127502
v 0.016957 2.122096 -1.515532
v -1.361657 2.122096 -1.515532
v -1.258261 1.340922 0.127502
v -0.086439 1.392970 0.127502
v -0.086439 2.058759 0.127502
v -1.258261 2.058759 0.127502
v -0.707913 2.056195 1.545170
v -0.650555 2.058742 1.545170
v -0.650555 2.091331 1.545170
v -0.707913 2.091331 1.545170
v -1.332596 1.769825 -1.844149
v -0.012104 1.795287 -1.844149
v -1.332596 2.120997 -1.844149
v -0.012104 2.120997 -1.844149
v -1.313976 1.979256 -2.181575
v -0.030724 1.988952 -2.181575
v -1.313976 2.112986 -2.181575
v -0.030724 2.112986 -2.181575
vt 0.283359 0.000000
vt 0.439236 0.000000
vt 0.439236 0.155877
vt 0.283359 0.155877
vt 0.412641 0.193595
vt 0.314977 0.193595
vt 0.406109 0.268501
vt 0.321510 0.268501
vt 0.416724 0.358585
vt 0.310895 0.358585
vt 0.459039 0.463283
vt 0.268579 0.463283
vt 0.459039 0.734329
vt 0.268579 0.734329
vt 0.497132 0.621240
vt 0.497132 0.733948
vt 0.536247 0.688256
vt 0.536247 0.731176
vt 0.097049 0.000000
vt 0.252987 0.000000
vt 0.252987 0.155939
vt 0.097049 0.155939
vt 0.221357 0.193671
vt 0.123654 0.193671
vt 0.214822 0.268607
vt 0.130189 0.268607
vt 0.225441 0.358726
vt 0.119570 0.358726
vt 0.267773 0.442269
vt 0.077238 0.442269
vt 0.267773 0.734619
vt 0.077238 0.734619
vt 0.039130 0.734238
vt 0.039130 0.612671
vt 0.000000 0.731465
vt 0.000000 0.685171
vt 0.999026 0.577390
vt 0.999026 0.814579
vt 0.829841 0.826183
vt 0.829841 0.814573
vt 0.000000 0.986995
vt 0.000000 0.731688
vt 0.168906 0.986084
vt 0.168906 0.998580
vt 0.268579 0.734329
vt 0.427196 0.734329
vt 0.427196 0.923368
vt 0.268579 0.923368
vt 0.423852 0.961177
vt 0.271923 0.961177
vt 0.421710 1.000000
vt 0.274065 1.000000
vt 0.106743 0.734619
vt 0.261430 0.734619
vt 0.261430 0.889306
vt 0.106743 0.889306
vt 0.551601 0.220655
vt 0.416642 0.220655
vt 0.480026 0.057382
vt 0.486632 0.057382
vt 0.539388 0.000000
vt 0.716218 0.000000
vt 0.716218 0.176829
vt 0.539388 0.176829
vt 0.683199 0.219617
vt 0.572408 0.219617
vt 0.675788 0.304591
vt 0.579818 0.304591
vt 0.687830 0.406784
vt 0.567776 0.406784
vt 0.718448 0.525555
vt 0.537159 0.501518
vt 0.704851 0.546813
vt 0.550755 0.526382
vt 0.718448 0.833033
vt 0.704851 0.808170
vt 0.630669 0.808164
vt 0.623127 0.807164
vt 0.537159 0.833033
vt 0.550755 0.808170
vt 0.721650 0.583960
vt 0.879874 0.583960
vt 0.879874 0.742183
vt 0.721650 0.742183
vt 0.751195 0.545674
vt 0.850329 0.545674
vt 0.757826 0.469640
vt 0.843698 0.469640
vt 0.747051 0.378200
vt 0.854473 0.378200
vt 0.719655 0.293434
vt 0.881869 0.271926
vt 0.723074 0.120535
vt 0.878449 0.111591
vt 0.725265 0.046972
vt 0.876259 0.043567
vt 0.725265 0.000000
vt 0.876259 0.000000
vt 0.000000 0.000000
vt 0.006598 0.000875
vt 0.006598 0.012066
vt 0.000000 0.012066
vn 0.000000 0.000000 1.000000
vn 0.000000 0.000000 1.000000
vn 0.000000 0.000000 1.000000
vn 0.000000 0.000000 1.000000
vn 0.000000 1.000000 0.000000
vn 0.000000 1.000000 0.000000
vn 0.000000 1.000000 -0.000522
vn 0.000000 1.000000 -0.000522
vn 0.000000 0.000000 -1.000000
vn 0.000000 0.000000 -1.000000
vn 0.000000 0.000000 -1.000000
vn 0.000000 0.000000 -1.000000
vn 0.000000 -1.000000 0.000000
vn 0.000000 -1.000000 0.000000
vn 0.000000 -1.000000 0.000000
vn 0.000000 -1.000000 0.000000
vn 1.000000 0.000000 0.000000
vn 1.000000 0.000000 0.000000
vn 1.000000 0.000000 0.000000
vn 1.000000 0.000000 0.000000
vn -1.000000 0.000000 0.000000
vn -1.000000 0.000000 0.000000
vn -1.000000 0.000000 0.000000
vn -1.000000 0.000000 0.000000
vn -0.000000 0.928601 0.371079
vn -0.000000 0.928601 0.371079
vn -0.000000 0.928601 0.371079
vn -0.000000 0.928601 0.371079
vn 0.398193 0.917302 0.000000
vn 0.398193 0.917302 0.000000
vn 0.398193 0.917302 0.000000
vn 0.398193 0.917302 0.000000
vn -0.000000 0.903248 -0.429119
vn -0.000000 0.903248 -0.429119
vn -0.000000 0.903248 -0.429119
vn -0.000000 0.903248 -0.429119
vn -0.398193 0.917302 0.000000
vn -0.398193 0.917302 0.000000
vn -0.398193 0.917302 0.000000
vn -0.398193 0.917302 0.000000
vn -0.000000 0.251933 0.967745
vn -0.000000 0.251933 0.967745
vn -0.000000 -0.082913 0.996557
vn -0.000000 -0.082913 0.996557
vn 0.967745 0.251933 0.000000
vn 0.967745 0.251933 0.000000
vn 0.996557 -0.082913 -0.000000
vn 0.996557 -0.082913 -0.000000
vn -0.000000 0.251933 -0.967745
vn -0.000000 0.251933 -0.967745
vn -0.000000 -0.082912 -0.996557
vn -0.000000 -0.082913 -0.996557
vn -0.967745 0.251932 0.000000
vn -0.967745 0.251932 0.000000
vn -0.996557 -0.082913 0.000000
vn -0.996557 -0.082913 0.000000
vn 0.000000 -0.331834 0.943338
vn 0.000000 -0.331834 0.943338
vn 0.943338 -0.331834 -0.000000
vn 0.943338 -0.331834 -0.000000
vn 0.000000 -0.331833 -0.943338
vn 0.000000 -0.331833 -0.943338
vn -0.943338 -0.331833 0.000000
vn -0.943338 -0.331833 0.000000
vn 0.021423 -0.801746 0.597281
vn 0.021423 -0.801746 0.597281
vn 0.021423 -0.801746 0.597281
vn 0.021423 -0.801746 0.597281
vn 0.792511 -0.609858 0.000000
vn 0.792511 -0.609858 0.000000
vn 0.792511 -0.609858 0.000000
vn 0.792511 -0.609858 0.000000
vn 0.021423 -0.801746 -0.597281
vn 0.021423 -0.801746 -0.597281
vn 0.019787 -0.670444 -0.741697
vn 0.019537 -0.652763 -0.757310
vn -0.719667 -0.694320 0.000000
vn -0.719667 -0.694320 0.000000
vn -0.719667 -0.694320 0.000000
vn -0.719667 -0.694320 0.000000
vn 0.000000 0.000000 1.000000
vn 0.000000 0.000000 1.000000
vn 0.000000 0.000000 1.000000
vn 0.000000 0.000000 1.000000
vn 1.000000 0.000000 0.000000
vn 1.000000 0.000000 0.000000
vn 1.000000 0.000000 0.000000
vn 1.000000 0.000000 0.000000
vn 0.000000 0.000000 -1.000000
vn 0.000000 0.000000 -1.000000
vn 0.000000 0.000000 -1.000000
vn 0.000000 0.000000 -1.000000
vn -1.000000 0.000000 0.000000
vn -1.000000 0.000000 0.000000
vn -1.000000 0.000000 0.000000
vn -1.000000 0.000000 0.000000
vn -0.000000 0.000000 1.000000
vn -0.000000 0.000000 1.000000
vn -0.000000 0.000000 1.000000
vn -0.000000 0.000000 1.000000
vn -0.000000 0.000000 1.000000
vn -0.000000 0.000000 1.000000
vn -0.000000 0.000000 1.000000
vn -0.000000 0.000000 1.000000
vn 0.039896 -0.898232 0.437708
vn 0.039896 -0.898232 0.437708
vn 0.039896 -0.898232 0.437708
vn 0.039896 -0.898232 0.437708
vn 0.929142 0.000000 0.369723
vn 0.929142 0.000000 0.369723
vn 0.929142 0.000000 0.369723
vn 0.929142 0.000000 0.369723
vn 0.000000 0.999736 -0.022970
vn 0.000000 0.999736 -0.022970
vn 0.000000 0.999736 -0.022970
vn 0.000000 0.999736 -0.022970
vn -0.932219 0.000000 0.361894
vn -0.932219 0.000000 0.361894
vn -0.932219 0.000000 0.361894
vn -0.932219 0.000000 0.361894
vn 0.018288 -0.569368 -0.821879
vn 0.018288 -0.569368 -0.821879
vn -0.996113 0.000000 -0.088089
vn -0.996113 0.000000 -0.088089
vn -0.996113 0.000000 -0.088089
vn -0.996113 0.000000 -0.088089
vn 0.000000 0.999915 -0.013034
vn 0.000000 0.999915 -0.013034
vn 0.996113 0.000000 -0.088089
vn 0.996113 0.000000 -0.088089
vn 0.996113 0.000000 -0.088089
vn 0.996113 0.000000 -0.088089
vn 0.011592 -0.858452 -0.512762
vn 0.011592 -0.858453 -0.512762
vn 0.011592 -0.858453 -0.512762
vn 0.011592 -0.858452 -0.512762
vn -0.998481 0.000000 -0.055100
vn -0.998481 0.000000 -0.055100
vn -0.998481 0.000000 -0.055100
vn -0.998481 0.000000 -0.055100
vn 0.000000 0.999718 -0.023736
vn 0.000000 0.999718 -0.023736
vn 0.998481 0.000000 -0.055100
vn 0.998481 0.000000 -0.055100
vn 0.998481 0.000000 -0.055100
vn 0.998481 0.000000 -0.055100
s off
g pCube1
usemtl lambert3SG
f 1/61/1 2/62/2 4/63/3 3/64/4
s 1
f 25/45/5 26/46/6 27/47/7 28/48/8
s off
f 5/81/9 6/82/10 8/83/11 7/84/12
f 7/53/13 8/54/14 2/55/15 1/56/16
f 2/1/17 8/2/18 6/3/19 4/4/20
f 7/19/21 1/20/22 3/21/23 5/22/24
f 3/64/25 4/63/26 10/65/27 9/66/28
f 4/4/29 6/3/30 11/5/31 10/6/32
f 6/82/33 5/81/34 12/85/35 11/86/36
f 5/22/37 3/21/38 9/23/39 12/24/40
s 2
f 9/66/41 10/65/42 14/67/43 13/68/44
s 3
f 10/6/45 11/5/46 15/7/47 14/8/48
s 4
f 11/86/49 12/85/50 16/87/51 15/88/52
s 5
f 12/24/53 9/23/54 13/25/55 16/26/56
s 2
f 13/68/44 14/67/43 18/69/57 17/70/58
s 3
f 14/8/48 15/7/47 19/9/59 18/10/60
s 4
f 15/88/52 16/87/51 20/89/61 19/90/62
s 5
f 16/26/56 13/25/55 17/27/63 20/28/64
s off
f 17/70/65 18/69/66 22/71/67 21/72/68
f 18/10/69 19/9/70 23/11/71 22/12/72
s 6
f 19/90/73 20/89/74 24/91/75 23/92/76
s off
f 20/28/77 17/27/78 21/29/79 24/30/80
f 33/99/81 34/100/82 35/101/83 36/102/84
f 22/12/85 23/11/86 27/13/87 26/14/88
f 42/96/89 41/95/90 43/97/91 44/98/92
f 24/30/93 21/29/94 25/31/95 28/32/96
s 7
f 21/72/97 22/71/98 30/73/99 29/74/100
f 22/71/98 26/75/101 31/76/102 30/73/99
f 26/75/101 25/79/103 32/80/104 31/76/102
f 25/79/103 21/72/97 29/74/100 32/80/104
s off
f 29/74/105 30/73/106 34/77/107 33/78/108
f 30/37/109 31/38/110 35/39/111 34/40/112
f 31/57/113 32/58/114 36/59/115 35/60/116
f 32/41/117 29/42/118 33/43/119 36/44/120
s 6
f 23/92/76 24/91/75 37/93/121 38/94/122
s off
f 24/30/123 28/32/124 39/33/125 37/34/126
s 1
f 28/48/8 27/47/7 40/49/127 39/50/128
s off
f 27/13/129 23/11/130 38/15/131 40/16/132
f 38/94/133 37/93/134 41/95/135 42/96/136
f 37/34/137 39/33/138 43/35/139 41/36/140
s 1
f 39/50/128 40/49/127 44/51/141 43/52/142
s off
f 40/16/143 38/15/144 42/17/145 44/18/146
