# This file uses centimeters as units for non-parametric coordinates.

mtllib Dart.mtl
g default
v 0.012275 0.409082 -0.012275
v 0.000000 0.409082 -0.017360
v -0.012275 0.409082 -0.012275
v -0.017360 0.409082 0.000000
v -0.012275 0.409082 0.012275
v 0.000000 0.409082 0.017360
v 0.012275 0.409082 0.012275
v 0.017360 0.409082 0.000000
v 0.000000 0.652458 0.000000
v 0.031391 0.400920 -0.031391
v -0.000000 0.400920 -0.044394
v -0.031391 0.400920 -0.031391
v -0.044394 0.400920 0.000000
v -0.031391 0.400920 0.031391
v -0.000000 0.400920 0.044394
v 0.031391 0.400920 0.031391
v 0.044394 0.400920 0.000000
v 0.071285 0.351360 -0.071285
v -0.000000 0.351360 -0.100812
v -0.071285 0.351360 -0.071285
v -0.100812 0.351360 0.000000
v -0.071285 0.351360 0.071285
v -0.000000 0.351360 0.100812
v 0.071285 0.351360 0.071285
v 0.100812 0.351360 0.000000
v 0.087756 0.289653 -0.087756
v -0.000000 0.289653 -0.124106
v -0.087756 0.289653 -0.087756
v -0.124106 0.289653 0.000000
v -0.087756 0.289653 0.087756
v -0.000000 0.289653 0.124106
v 0.087756 0.289653 0.087756
v 0.124106 0.289653 0.000000
v 0.071285 0.103326 -0.071285
v -0.000000 0.103326 -0.100812
v -0.071285 0.103326 -0.071285
v -0.100812 0.103326 0.000000
v -0.071285 0.103326 0.071285
v -0.000000 0.103326 0.100812
v 0.071285 0.103326 0.071285
v 0.100812 0.103326 0.000000
v -0.000000 0.076605 -0.130291
v -0.130291 0.076605 0.000000
v -0.000000 0.076605 0.130291
v 0.130291 0.076605 0.000000
v -0.000000 0.000000 -0.149614
v -0.149614 0.000000 0.000000
v -0.000000 0.000000 0.149614
v 0.149614 0.000000 0.000000
v -0.000000 -0.091419 -0.130291
v -0.130291 -0.091419 0.000000
v -0.000000 -0.091419 0.130291
v 0.130291 -0.091419 0.000000
v -0.000000 -0.112033 0.000000
v 0.057303 0.103326 -0.057303
v -0.000000 0.103326 -0.081038
v 0.057303 0.076605 -0.057303
v -0.000000 0.076605 -0.081038
v -0.057303 0.103326 -0.057303
v -0.057303 0.076605 -0.057303
v -0.081038 0.103326 0.000000
v -0.081038 0.076605 0.000000
v -0.057303 0.103326 0.057303
v -0.057303 0.076605 0.057303
v -0.000000 0.103326 0.081038
v -0.000000 0.076605 0.081038
v 0.057303 0.103326 0.057303
v 0.057303 0.076605 0.057303
v 0.081038 0.103326 0.000000
v 0.081038 0.076605 0.000000
v 0.064294 0.076605 -0.064294
v 0.077616 0.076605 -0.063636
v 0.090154 0.076605 -0.090154
v 0.063636 0.076605 -0.077616
v 0.074208 0.000000 -0.088188
v 0.150035 0.000000 -0.150035
v 0.088188 0.000000 -0.074208
v -0.064294 0.076605 -0.064294
v -0.063636 0.076605 -0.077616
v -0.090154 0.076605 -0.090154
v -0.077616 0.076605 -0.063636
v -0.088188 0.000000 -0.074208
v -0.150035 0.000000 -0.150035
v -0.074208 0.000000 -0.088188
v -0.064294 0.076605 0.064294
v -0.077616 0.076605 0.063636
v -0.090154 0.076605 0.090154
v -0.063636 0.076605 0.077616
v -0.074208 0.000000 0.088188
v -0.150035 0.000000 0.150035
v -0.088188 0.000000 0.074208
v 0.064294 0.076605 0.064294
v 0.063636 0.076605 0.077616
v 0.090154 0.076605 0.090154
v 0.077616 0.076605 0.063636
v 0.088188 0.000000 0.074208
v 0.150035 0.000000 0.150035
v 0.074208 0.000000 0.088188
v 0.064460 -0.093555 -0.064460
v 0.063636 -0.091419 -0.077616
v 0.188286 -0.178635 -0.188286
v 0.077616 -0.091419 -0.063636
v -0.064460 -0.093555 -0.064460
v -0.077616 -0.091419 -0.063636
v -0.188286 -0.178635 -0.188286
v -0.063636 -0.091419 -0.077616
v -0.064460 -0.093555 0.064460
v -0.063636 -0.091419 0.077616
v -0.188286 -0.178635 0.188286
v -0.077616 -0.091419 0.063636
v 0.064460 -0.093555 0.064460
v 0.077616 -0.091419 0.063636
v 0.188286 -0.178635 0.188286
v 0.063636 -0.091419 0.077616
vt 0.688083 0.674099
vt 0.683151 0.666299
vt 0.359181 0.953091
vt 0.783106 0.658790
vt 0.771521 0.667676
vt 0.755190 0.674674
vt 0.736618 0.679200
vt 0.717815 0.680797
vt 0.700795 0.679138
vt 0.667685 0.683891
vt 0.657360 0.666591
vt 0.806625 0.664075
vt 0.787922 0.679852
vt 0.764421 0.690653
vt 0.738798 0.696887
vt 0.712736 0.698348
vt 0.688041 0.694344
vt 0.623945 0.719018
vt 0.592331 0.689076
vt 0.856479 0.693603
vt 0.819718 0.717064
vt 0.781320 0.732716
vt 0.741980 0.741327
vt 0.702027 0.742649
vt 0.662106 0.735772
vt 0.600769 0.758483
vt 0.550231 0.735131
vt 0.884989 0.730077
vt 0.838233 0.753170
vt 0.792172 0.770042
vt 0.745579 0.779711
vt 0.698112 0.781390
vt 0.649829 0.774407
vt 0.599676 0.889208
vt 0.546908 0.892618
vt 0.907495 0.855910
vt 0.859451 0.867483
vt 0.809591 0.880005
vt 0.757854 0.889214
vt 0.704933 0.893251
vt 0.651933 0.892319
vt 0.434738 0.206740
vt 0.602282 0.901577
vt 0.560694 0.746680
vt 0.932829 0.651419
vt 0.393240 0.207697
vt 0.889117 0.657225
vt 0.346775 0.218348
vt 0.833298 0.637264
vt 0.297427 0.230345
vt 0.771530 0.636433
vt 0.245771 0.239367
vt 0.707528 0.639298
vt 0.192852 0.243471
vt 0.651104 0.669425
vt 0.140145 0.242924
vt 0.598526 0.701485
vt 0.633590 0.902522
vt 0.658982 0.849778
vt 0.043119 0.293545
vt 0.763621 0.844628
vt 0.821504 0.765539
vt 0.847286 0.789663
vt 0.044910 0.295103
vt 0.741209 0.761860
vt 0.773256 0.764942
vt 0.042803 0.294208
vt 0.673839 0.805856
vt 0.707673 0.785607
vt 0.044297 0.296176
vt 0.516607 0.803617
vt 0.897850 0.672310
vt 0.416083 0.139429
vt 0.835476 0.663963
vt 0.780879 0.649304
vt 0.417495 0.141991
vt 0.714350 0.663859
vt 0.663025 0.677397
vt 0.416001 0.140344
vt 0.610322 0.725529
vt 0.571209 0.754508
vt 0.417180 0.142545
vt 0.392549 0.122244
vt 0.391237 0.119505
vt 0.392756 0.121691
vt 0.391123 0.120388
vt 0.071396 0.317170
vt 0.073440 0.318294
vt 0.071206 0.317831
vt 0.072863 0.319403
vt 0.367210 0.162717
vt 0.274005 0.200342
vt 0.592835 0.814751
vt 0.599832 0.805649
vt 0.366499 0.160225
vt 0.274014 0.199014
vt 0.885239 0.727846
vt 0.895853 0.732372
vt 0.367442 0.162325
vt 0.274080 0.200253
vt 0.773997 0.699826
vt 0.783191 0.700287
vt 0.366347 0.161161
vt 0.273729 0.199990
vt 0.673723 0.730120
vt 0.681507 0.725260
vt 0.951711 0.754457
vt 0.832806 0.711539
vt 0.726839 0.709278
vt 0.636780 0.765104
vt 0.059429 0.286961
vt 0.061095 0.288315
vt 0.059141 0.287571
vt 0.060505 0.289382
vt 0.649846 0.685333
vt 0.653401 0.674760
vt 0.765441 0.649511
vt 0.772321 0.642185
vt 0.883900 0.669339
vt 0.890280 0.664009
vt 0.561009 0.764039
vt 0.563146 0.753107
vt 0.956185 0.684364
vt 0.292437 0.320530
vt 0.715123 0.780868
vt 0.047759 0.259523
vt 0.200882 0.102146
vt 0.412792 0.172074
vt 0.291508 0.321408
vt 0.782031 0.765314
vt 0.046684 0.257469
vt 0.202077 0.101268
vt 0.413922 0.173792
vt 0.292714 0.319387
vt 0.856259 0.795947
vt 0.048362 0.258499
vt 0.201253 0.101316
vt 0.412883 0.171117
vt 0.047071 0.256910
vt 0.202407 0.101454
vt 0.413546 0.174257
vt 0.715794 0.788941
vt 0.776741 0.772283
vt 0.845058 0.798576
vt 0.670061 0.846261
vt 0.179081 0.616178
vt 0.197688 0.606873
vt 0.161008 0.626481
vt 0.143523 0.637753
vt 0.126677 0.649960
vt 0.110521 0.663065
vt 0.095102 0.677031
vt 0.216774 0.598596
vt 0.080466 0.691816
vt 0.044134 0.245172
vt 0.520206 0.763542
vt 0.954082 0.853981
vt 0.904595 0.828820
vt 0.555516 0.861810
vt 0.936164 0.702730
vt 0.889056 0.659033
vt 0.815014 0.642561
vt 0.786529 0.649324
vt 0.291122 0.321222
vt 0.663713 0.839608
vt 0.142540 0.260295
vt 0.093058 0.258492
vt 0.195029 0.260670
vt 0.248116 0.256476
vt 0.299729 0.247474
vt 0.348257 0.235710
vt 0.392510 0.225771
vt 0.049391 0.263056
vt 0.432967 0.225224
vt 0.653064 0.903663
vt 0.089363 0.240838
vt 0.705771 0.904210
vt 0.758690 0.900107
vt 0.810346 0.891085
vt 0.859694 0.879088
vt 0.906159 0.868437
vt 0.557053 0.905912
vt 0.947657 0.867479
vn 0.633714 0.443635 -0.633715
vn 0.000000 0.443635 -0.896208
vn 0.000000 1.000000 -0.000000
vn -0.633715 0.443635 -0.633714
vn -0.896208 0.443635 0.000000
vn -0.633715 0.443635 0.633714
vn 0.000000 0.443635 0.896208
vn 0.633714 0.443635 0.633715
vn 0.896208 0.443635 -0.000000
vn 0.445649 0.776398 -0.445649
vn 0.000000 0.776398 -0.630243
vn -0.445649 0.776398 -0.445649
vn -0.630243 0.776398 0.000000
vn -0.445649 0.776398 0.445649
vn 0.000000 0.776398 0.630243
vn 0.445649 0.776398 0.445649
vn 0.630243 0.776398 -0.000000
vn 0.608885 0.508448 -0.608885
vn 0.000000 0.508448 -0.861093
vn -0.608885 0.508448 -0.608885
vn -0.861093 0.508448 0.000000
vn -0.608885 0.508448 0.608885
vn -0.000000 0.508448 0.861093
vn 0.608885 0.508448 0.608885
vn 0.861093 0.508448 -0.000000
vn 0.707096 -0.005509 -0.707096
vn 0.000000 -0.005509 -0.999985
vn -0.707096 -0.005509 -0.707096
vn -0.999985 -0.005509 -0.000000
vn -0.707096 -0.005509 0.707096
vn 0.000000 -0.005509 0.999985
vn 0.707096 -0.005509 0.707096
vn 0.999985 -0.005509 0.000000
vn 0.694998 -0.184271 -0.694998
vn 0.000000 -0.184271 -0.982875
vn -0.694998 -0.184271 -0.694998
vn -0.982875 -0.184271 -0.000000
vn -0.694998 -0.184271 0.694998
vn 0.000000 -0.184271 0.982875
vn 0.694998 -0.184271 0.694998
vn 0.982875 -0.184271 0.000000
vn 0.000000 -0.720115 -0.693855
vn 0.490629 -0.720115 -0.490629
vn 0.335436 0.880321 -0.335436
vn 0.000000 0.880321 -0.474378
vn -0.490629 -0.720115 -0.490629
vn -0.335436 0.880321 -0.335436
vn -0.693855 -0.720115 0.000000
vn -0.474378 0.880321 0.000000
vn -0.490629 -0.720115 0.490629
vn -0.335436 0.880321 0.335436
vn 0.000000 -0.720115 0.693855
vn 0.000000 0.880321 0.474379
vn 0.490629 -0.720115 0.490629
vn 0.335436 0.880321 0.335436
vn 0.693855 -0.720115 0.000000
vn 0.474378 0.880321 -0.000000
vn 0.000000 -0.487576 -0.873080
vn -0.308691 -0.394817 -0.865349
vn 0.085396 -0.992681 -0.085396
vn 0.000000 -1.000000 0.000000
vn -0.873080 -0.487576 0.000000
vn -0.865349 -0.394817 0.308691
vn -0.085396 -0.992681 -0.085396
vn 0.000000 -0.487576 0.873080
vn 0.308691 -0.394817 0.865349
vn -0.085396 -0.992681 0.085396
vn 0.873080 -0.487576 0.000000
vn 0.865349 -0.394817 -0.308691
vn 0.085396 -0.992681 0.085396
vn 0.000000 0.426408 -0.904531
vn -0.181296 0.510813 -0.840358
vn 0.000000 1.000000 -0.000000
vn -0.904531 0.426408 0.000000
vn -0.840358 0.510813 0.181296
vn 0.000000 1.000000 0.000000
vn 0.000000 0.426408 0.904531
vn 0.181296 0.510813 0.840358
vn 0.000000 1.000000 -0.000000
vn 0.904531 0.426408 0.000000
vn 0.840358 0.510813 -0.181296
vn 0.000000 1.000000 0.000000
vn 0.181296 0.510813 -0.840358
vn -0.840358 0.510813 -0.181296
vn -0.181296 0.510813 0.840358
vn 0.840358 0.510813 0.181296
vn 0.865349 -0.394817 0.308691
vn 0.308691 -0.394817 -0.865349
vn -0.865349 -0.394817 -0.308691
vn -0.308691 -0.394817 0.865349
vn 0.583275 0.565314 -0.583275
vn 0.687896 0.231511 -0.687896
vn -0.191840 0.024874 -0.981111
vn 0.981111 0.024874 0.191840
vn -0.583275 0.565314 -0.583275
vn -0.687896 0.231511 -0.687896
vn -0.981111 0.024874 0.191840
vn 0.191840 0.024874 -0.981111
vn -0.583275 0.565314 0.583275
vn -0.687896 0.231511 0.687896
vn 0.191840 0.024874 0.981111
vn -0.981111 0.024874 -0.191840
vn 0.583275 0.565314 0.583275
vn 0.687896 0.231511 0.687896
vn 0.981111 0.024874 -0.191840
vn -0.191840 0.024874 0.981111
vn 0.000000 -0.001961 -0.999998
vn -0.999998 -0.001961 0.000000
vn 0.000000 -0.001961 0.999998
vn 0.999998 -0.001961 0.000000
vn 0.705761 0.061677 -0.705760
vn -0.705761 0.061677 -0.705760
vn -0.705761 0.061677 0.705760
vn 0.705761 0.061677 0.705760
s 1
g pCone1
usemtl initialShadingGroup
f 1/147/1 2/153/2 9/3/3
f 2/154/2 3/152/4 9/3/3
f 3/152/4 4/151/5 9/3/3
f 4/151/5 5/150/6 9/3/3
f 5/150/6 6/149/7 9/3/3
f 6/149/7 7/148/8 9/3/3
f 7/148/8 8/146/9 9/3/3
f 8/146/9 1/147/1 9/3/3
f 2/2/2 1/1/1 10/10/10 11/11/11
f 3/4/4 2/163/2 11/162/11 12/12/12
f 4/5/5 3/4/4 12/12/12 13/13/13
f 5/6/6 4/5/5 13/13/13 14/14/14
f 6/7/7 5/6/6 14/14/14 15/15/15
f 7/8/8 6/7/7 15/15/15 16/16/16
f 8/9/9 7/8/8 16/16/16 17/17/17
f 1/1/1 8/9/9 17/17/17 10/10/10
f 11/11/11 10/10/10 18/18/18 19/19/19
f 12/12/12 11/162/11 19/161/19 20/20/20
f 13/13/13 12/12/12 20/20/20 21/21/21
f 14/14/14 13/13/13 21/21/21 22/22/22
f 15/15/15 14/14/14 22/22/22 23/23/23
f 16/16/16 15/15/15 23/23/23 24/24/24
f 17/17/17 16/16/16 24/24/24 25/25/25
f 10/10/10 17/17/17 25/25/25 18/18/18
f 19/19/19 18/18/18 26/26/26 27/27/27
f 20/20/20 19/161/19 27/160/27 28/28/28
f 21/21/21 20/20/20 28/28/28 29/29/29
f 22/22/22 21/21/21 29/29/29 30/30/30
f 23/23/23 22/22/22 30/30/30 31/31/31
f 24/24/24 23/23/23 31/31/31 32/32/32
f 25/25/25 24/24/24 32/32/32 33/33/33
f 18/18/18 25/25/25 33/33/33 26/26/26
f 27/27/27 26/26/26 34/34/34 35/35/35
f 28/28/28 27/160/27 35/157/35 36/36/36
f 29/29/29 28/28/28 36/36/36 37/37/37
f 30/30/30 29/29/29 37/37/37 38/38/38
f 31/31/31 30/30/30 38/38/38 39/39/39
f 32/32/32 31/31/31 39/39/39 40/40/40
f 33/33/33 32/32/32 40/40/40 41/41/41
f 26/26/26 33/33/33 41/41/41 34/34/34
f 56/155/42 55/176/43 57/167/44 58/173/45
f 59/46/46 56/42/42 58/174/45 60/172/47
f 61/48/48 59/46/46 60/172/47 62/171/49
f 63/50/50 61/48/48 62/171/49 64/170/51
f 65/52/52 63/50/50 64/170/51 66/169/53
f 67/54/54 65/52/52 66/169/53 68/168/55
f 69/56/56 67/54/54 68/168/55 70/166/57
f 55/176/43 69/56/56 70/166/57 57/167/44
f 50/58/58 100/59/59 99/145/60 54/61/61
f 51/62/62 104/63/63 103/144/64 54/61/61
f 52/65/65 108/66/66 107/143/67 54/61/61
f 53/68/68 112/69/69 111/142/70 54/61/61
f 35/35/35 34/34/34 55/43/43 56/182/42
f 36/36/36 35/157/35 56/183/42 59/181/46
f 42/123/71 79/72/72 78/120/73 60/47/47 58/45/45
f 37/37/37 36/36/36 59/181/46 61/180/48
f 38/38/38 37/37/37 61/180/48 63/179/50
f 43/74/74 86/75/75 85/118/76 64/51/51 62/49/49
f 39/39/39 38/38/38 63/179/50 65/178/52
f 40/40/40 39/39/39 65/178/52 67/177/54
f 44/77/77 93/78/78 92/116/79 68/55/55 66/53/53
f 41/41/41 40/40/40 67/177/54 69/175/56
f 34/34/34 41/41/41 69/175/56 55/43/43
f 45/80/80 72/81/81 71/122/82 57/44/44 70/57/57
f 71/122/82 74/121/83 42/71/71 58/156/45 57/44/44
f 78/120/73 81/119/84 43/74/74 62/49/49 60/47/47
f 85/118/76 88/117/85 44/77/77 66/53/53 64/51/51
f 92/116/79 95/115/86 45/80/80 70/57/57 68/55/55
f 99/145/60 102/165/87 53/68/68 54/61/61
f 103/144/64 106/135/88 50/158/58 54/61/61
f 107/143/67 110/130/89 51/62/62 54/61/61
f 111/142/70 114/125/90 52/65/65 54/61/61
f 74/83/83 73/91/91 76/92/92 75/140/93
f 73/91/91 72/141/81 77/164/94 76/92/92
f 81/84/84 80/95/95 83/96/96 82/137/97
f 80/95/95 79/138/72 84/134/98 83/96/96
f 88/85/85 87/99/99 90/100/100 89/132/101
f 87/99/99 86/133/75 91/129/102 90/100/100
f 95/86/86 94/103/103 97/104/104 96/127/105
f 94/103/103 93/128/78 98/124/106 97/104/104
f 42/71/71 74/121/83 75/93/93 46/159/107
f 84/98/98 79/72/72 42/123/71 46/107/107
f 43/74/74 81/119/84 82/97/97 47/108/108
f 91/102/102 86/75/75 43/74/74 47/108/108
f 44/77/77 88/117/85 89/101/101 48/109/109
f 98/106/106 93/78/78 44/77/77 48/109/109
f 45/80/80 95/115/86 96/105/105 49/110/110
f 77/94/94 72/81/81 45/80/80 49/110/110
f 46/159/107 75/93/93 100/59/59 50/58/58
f 84/98/98 46/107/107 50/158/58 106/135/88
f 47/108/108 82/97/97 104/63/63 51/62/62
f 91/102/102 47/108/108 51/62/62 110/130/89
f 48/109/109 89/101/101 108/66/66 52/65/65
f 98/106/106 48/109/109 52/65/65 114/125/90
f 49/110/110 96/105/105 112/69/69 53/68/68
f 77/94/94 49/110/110 53/68/68 102/165/87
f 71/82/82 72/141/81 73/91/91
f 71/82/82 73/91/91 74/83/83
f 78/73/73 79/138/72 80/95/95
f 78/73/73 80/95/95 81/84/84
f 85/76/76 86/133/75 87/99/99
f 85/76/76 87/99/99 88/85/85
f 92/79/79 93/128/78 94/103/103
f 92/79/79 94/103/103 95/86/86
f 99/60/60 100/139/59 101/111/111 102/87/87
f 103/64/64 104/136/63 105/112/112 106/88/88
f 107/67/67 108/131/66 109/113/113 110/89/89
f 111/70/70 112/126/69 113/114/114 114/90/90
f 75/140/93 76/92/92 101/111/111 100/139/59
f 76/92/92 77/164/94 102/87/87 101/111/111
f 82/137/97 83/96/96 105/112/112 104/136/63
f 83/96/96 84/134/98 106/88/88 105/112/112
f 89/132/101 90/100/100 109/113/113 108/131/66
f 90/100/100 91/129/102 110/89/89 109/113/113
f 96/127/105 97/104/104 113/114/114 112/126/69
f 97/104/104 98/124/106 114/90/90 113/114/114
