# This file uses centimeters as units for non-parametric coordinates.

mtllib Cliff.mtl
g default
v 0.000000 0.000000 -2.313246
v -0.905090 0.000000 -2.313246
v -0.905090 2.313246 0.000000
v 0.000000 0.000000 2.313246
v -0.905090 0.000000 2.313246
v 0.000000 -3.397240 0.000000
v -0.905090 -2.313246 0.000000
v -2.308045 -1.765765 0.000000
v -4.000755 0.283279 0.000000
v 0.000000 0.000000 0.000000
v -6.895976 1.096507 0.000000
v -7.152018 2.410487 0.000000
v -7.459198 1.760337 0.000000
v 0.000000 1.985853 -2.313246
v -0.327393 2.313246 -1.985853
v -0.905090 2.313246 -1.985853
v -0.907638 1.985853 -2.313246
v -0.327393 2.313246 1.985853
v 0.000000 1.985853 2.313246
v -0.905090 2.313246 1.985853
v -0.907638 1.985853 2.313246
v -0.327393 2.313246 0.000000
v 0.000000 1.985853 0.000000
v 0.000000 -3.397240 -1.916358
v 0.000000 -2.777993 -2.313246
v -0.665800 -1.980588 -2.313246
v -0.905090 -2.313246 -1.916358
v -2.308045 -1.765765 -1.916358
v -2.067720 -1.433511 -2.313246
v 0.000000 -3.397240 1.916358
v 0.000000 -2.777993 2.313246
v -0.665800 -1.980588 2.313246
v -0.905090 -2.313246 1.916358
v -2.308045 -1.765765 1.916358
v -2.067720 -1.433511 2.313246
v -3.773866 0.631797 -2.313246
v -4.000755 0.283279 -1.916358
v -6.895976 1.096507 -1.916358
v -6.671837 1.445797 -2.313246
v -4.000755 0.283279 1.916358
v -3.773866 0.631797 2.313246
v -6.895976 1.096507 1.916358
v -6.671837 1.445797 2.313246
v -7.459198 1.760337 -1.911921
v -7.017941 1.775526 -2.313246
v -7.459198 1.760337 1.911921
v -7.017941 1.775526 2.313246
v -6.758562 2.404362 -1.985853
v -7.152018 2.410487 -1.585200
v -6.758562 2.404362 1.985853
v -7.152018 2.410487 1.585200
vt 0.375000 0.375000
vt 0.375000 0.517691
vt 0.420216 0.482309
vt 0.375000 0.232309
vt 0.420216 0.267691
vt 0.420216 0.375000
vt 0.500000 0.375000
vt 0.375000 0.625000
vt 0.250000 0.125000
vt 0.125000 0.232309
vt 0.250000 0.232309
vt 0.250000 0.000000
vt 0.125000 0.022785
vt 0.146446 -0.000000
vt 0.125000 0.125000
vt 0.500000 0.267691
vt 0.609715 0.375000
vt 0.500000 0.482309
vt 0.353554 -0.000000
vt 0.500000 0.000000
vt 0.500000 1.000000
vt 0.625000 0.978554
vt 0.605804 1.000000
vt 0.375000 0.727215
vt 0.625000 0.750000
vt 0.625000 0.625000
vt 0.643528 0.225210
vt 0.623632 0.201484
vt 0.875000 0.125000
vt 0.875000 0.183040
vt 0.875000 0.187500
vt 0.875000 0.198687
vt 0.602804 0.267691
vt 0.620121 0.497682
vt 0.609715 0.460659
vt 0.375000 0.022785
vt 0.466952 0.022785
vt 0.375000 0.125000
vt 0.604976 0.148009
vt 0.602513 0.726622
vt 0.375000 0.771446
vt 0.500000 0.771446
vt 0.375000 0.875000
vt 0.625000 0.771446
vt 0.500000 0.875000
vt 0.375000 0.978554
vt 0.625000 0.875000
vt 0.500000 0.978554
vt 0.750000 0.000000
vt 0.853554 0.000000
vt 0.853554 0.125000
vt 0.646446 0.000000
vt 0.750000 0.125000
vt 0.853554 0.187500
vt 0.646446 0.125000
vt 0.750000 0.187500
vt 0.602513 0.023378
vt 0.500000 0.625000
vt 0.466952 0.727215
vt 0.615083 0.375000
vt 0.853314 0.218753
vt 0.646446 0.187500
vt 0.750000 0.218753
vt 0.609715 0.289341
vt 0.620121 0.252318
vt 0.602805 0.482309
vt 0.613024 0.523048
vt 0.500000 0.125000
vt 0.613743 0.207473
vt 0.613743 0.542527
vt 0.500103 0.517704
vt 0.604976 0.601991
vt 0.500103 0.232296
vt 0.613024 0.226952
vn 1.000000 0.000000 0.000000
vn 1.000000 0.000000 0.000000
vn 1.000000 0.000000 0.000000
vn 1.000000 0.000000 0.000000
vn 1.000000 0.000000 0.000000
vn 0.707107 0.707107 0.000000
vn 0.707107 0.707107 0.000000
vn 0.707107 0.707107 0.000000
vn 0.707107 0.707107 0.000000
vn 0.000000 0.707107 -0.707107
vn 0.000000 0.707107 -0.707107
vn -0.005148 0.579319 -0.815085
vn -0.005137 0.579590 -0.814892
vn 0.707107 0.707107 0.000000
vn 0.707107 0.707107 0.000000
vn 0.000000 0.707107 0.707107
vn 0.000000 0.707107 0.707107
vn -0.005137 0.579590 0.814892
vn -0.005148 0.579319 0.815085
vn 0.000000 0.000000 -1.000000
vn -0.000000 0.000000 -1.000000
vn -0.000000 0.000000 -1.000000
vn 0.000000 0.000000 -1.000000
vn 0.000000 1.000000 0.000000
vn 0.014239 0.999899 0.000000
vn 0.014239 0.999899 0.000000
vn 0.000000 1.000000 0.000000
vn 0.014239 0.999899 0.000000
vn 0.000000 1.000000 0.000000
vn 0.000000 0.000000 1.000000
vn 0.000000 0.000000 1.000000
vn -0.000000 0.000000 1.000000
vn 0.000000 0.000000 1.000000
vn 1.000000 0.000000 0.000000
vn 1.000000 0.000000 0.000000
vn 1.000000 0.000000 0.000000
vn 1.000000 0.000000 0.000000
vn 0.015564 0.999879 0.000000
vn 0.015564 0.999879 0.000000
vn 0.015564 0.999879 0.000000
vn 0.015564 0.999879 0.000000
vn 0.015564 0.999879 0.000000
vn 1.000000 0.000000 0.000000
vn 1.000000 0.000000 0.000000
vn -0.542781 -0.453199 -0.707107
vn -0.542781 -0.453199 -0.707107
vn -0.391317 -0.575382 -0.718197
vn -0.391317 -0.575382 -0.718197
vn -0.447813 -0.533338 -0.717645
vn -0.447813 -0.533339 -0.717645
vn -0.365791 -0.585618 -0.723359
vn -0.365791 -0.585618 -0.723359
vn -0.542781 -0.453199 0.707107
vn -0.542781 -0.453199 0.707107
vn -0.391317 -0.575382 0.718197
vn -0.391317 -0.575382 0.718197
vn -0.447813 -0.533338 0.717645
vn -0.447813 -0.533338 0.717644
vn -0.365792 -0.585618 0.723359
vn -0.365791 -0.585618 0.723359
vn -0.257050 -0.655199 -0.710380
vn -0.254598 -0.656219 -0.710322
vn -0.543337 -0.494242 -0.678609
vn -0.543337 -0.494242 -0.678609
vn -0.254598 -0.656219 0.710322
vn -0.257050 -0.655199 0.710380
vn -0.543337 -0.494241 0.678609
vn -0.543337 -0.494241 0.678609
vn -0.577265 0.559761 -0.594502
vn -0.577265 0.559761 -0.594502
vn -0.577265 0.559761 -0.594502
vn -0.577265 0.559761 -0.594502
vn -0.577266 0.559761 0.594502
vn -0.577266 0.559761 0.594502
vn -0.577266 0.559761 0.594502
vn -0.577266 0.559761 0.594502
vn 0.000000 0.000000 -1.000000
vn 0.000000 0.000000 -1.000000
vn -0.000000 0.000000 -1.000000
vn -0.000000 0.000000 -1.000000
vn 0.000000 0.000000 1.000000
vn 0.000000 0.000000 1.000000
vn -0.000000 0.000000 1.000000
vn -0.000000 0.000000 1.000000
vn -0.767608 -0.640920 0.000000
vn -0.577218 -0.816590 0.000000
vn -0.577218 -0.816590 0.000000
vn -0.767608 -0.640920 0.000000
vn -0.642635 -0.766172 0.000000
vn -0.642636 -0.766172 0.000000
vn -0.577218 -0.816590 0.000000
vn -0.767608 -0.640920 0.000000
vn -0.642635 -0.766172 0.000000
vn -0.770958 -0.636886 0.000000
vn -0.770958 -0.636886 0.000000
vn -0.770958 -0.636886 0.000000
vn -0.270421 -0.962742 0.000000
vn -0.270421 -0.962742 0.000000
vn -0.270421 -0.962742 0.000000
vn -0.270421 -0.962742 0.000000
vn -0.270421 -0.962742 0.000000
vn -0.270421 -0.962742 0.000000
vn -0.904160 0.427194 0.000000
vn -0.904160 0.427194 0.000000
vn -0.904160 0.427194 0.000000
vn -0.904160 0.427194 0.000000
vn -0.762525 -0.646959 0.000000
vn -0.762525 -0.646959 0.000000
vn -0.762525 -0.646959 0.000000
vn -0.762525 -0.646959 0.000000
vn -0.762524 -0.646959 0.000000
vn -0.762525 -0.646959 0.000000
vn -0.904160 0.427194 0.000000
vn -0.904160 0.427194 0.000000
vn -0.005640 0.566034 -0.824362
vn -0.005640 0.566034 -0.824363
vn -0.005640 0.566034 0.824363
vn -0.005640 0.566034 0.824362
vn -0.000000 0.000000 -1.000000
vn 0.000000 0.000000 1.000000
vn 0.000000 0.000000 1.000000
vn -0.000000 0.000000 -1.000000
s 1
g pCube1
usemtl initialShadingGroup
f 6/12/1 24/19/2 25/36/3 1/38/4 10/9/5
s 2
f 14/4/6 15/5/7 22/6/8 23/1/9
s 3
f 15/5/10 14/4/11 17/73/12 16/16/13
s 2
f 18/3/14 19/2/15 23/1/9 22/6/8
s 4
f 19/2/16 18/3/17 20/18/18 21/71/19
s 5
f 1/38/20 2/68/21 17/73/22 14/4/23
s 6
f 15/5/24 16/16/25 3/7/26 22/6/27
f 22/6/27 3/7/26 20/18/28 18/3/29
s 7
f 19/2/30 21/71/31 5/58/32 4/8/33
s 1
f 4/15/34 10/9/5 23/11/35 19/10/36
f 10/9/5 1/38/4 14/4/37 23/11/35
s 6
f 16/16/25 48/33/38 49/64/39 12/17/40 3/7/26
f 3/7/26 12/17/40 51/35/41 50/66/42 20/18/28
s 1
f 31/13/43 30/14/44 6/12/1 10/9/5 4/15/34
s 8
f 25/36/45 24/19/46 27/20/47 26/37/48
f 26/21/48 27/48/47 28/22/49 29/23/50
f 29/57/50 28/52/49 37/55/51 36/39/52
s 9
f 30/41/53 31/24/54 32/59/55 33/42/56
f 33/42/56 32/59/55 35/40/57 34/44/58
f 34/25/58 35/40/57 41/72/59 40/26/60
s 8
f 36/39/52 37/55/51 38/62/61 39/69/62
f 39/69/62 38/62/61 44/27/63 45/28/64
s 9
f 40/51/60 41/29/59 43/30/65 42/54/66
f 42/54/66 43/31/65 47/32/67 46/61/68
s off
f 45/74/69 44/65/70 49/64/71 48/33/72
f 46/34/73 47/67/74 50/66/75 51/35/76
s 5
f 25/36/77 26/37/78 2/68/21 1/38/20
f 2/68/21 29/57/79 36/39/80
s 7
f 4/8/33 5/58/32 32/59/81 31/24/82
f 5/58/32 41/72/83 35/40/84
s 10
f 30/41/85 33/42/86 7/45/87 6/43/88
f 33/42/86 34/44/89 8/47/90 7/45/87
f 6/43/88 7/45/87 27/48/91 24/46/92
f 7/45/87 8/47/90 28/22/93 27/48/91
f 8/49/90 34/50/89 40/51/94 9/53/95
f 28/52/93 8/49/90 9/53/95 37/55/96
s 11
f 9/53/97 40/51/98 42/54/99 11/56/100
f 37/55/101 9/53/97 11/56/100 38/62/102
s 5
f 26/37/78 29/57/79 2/68/21
s 7
f 5/58/32 35/40/84 32/59/81
s 12
f 12/17/103 13/60/104 46/34/105 51/35/106
s 13
f 11/56/107 42/54/108 46/61/109 13/63/110
f 38/62/111 11/56/107 13/63/110 44/27/112
s 12
f 49/64/113 44/65/114 13/60/104 12/17/103
s 3
f 16/16/13 17/73/12 45/74/115 48/33/116
s 4
f 21/71/19 20/18/18 50/66/117 47/67/118
s 5
f 2/68/21 36/39/80 39/69/119 17/73/22
s 7
f 21/71/31 47/67/120 43/70/121
f 21/71/31 43/70/121 41/72/83 5/58/32
s 5
f 17/73/22 39/69/119 45/74/122
