# This file uses centimeters as units for non-parametric coordinates.

mtllib Single Blade of Grass 1.mtl
g default
v 0.000000 1.000000 0.166664
v -0.000000 0.000000 0.166664
v 0.000000 1.000000 -0.166664
v -0.000000 0.000000 -0.166664
v 0.000000 1.000000 0.166664
v -0.000000 0.000000 0.166664
v 0.000000 1.000000 -0.166664
v -0.000000 0.000000 -0.166664
vt 0.000000 0.000000
vt 0.500000 0.000000
vt 0.000000 1.000000
vt 0.500000 1.000000
vt 0.000000 0.000000
vt 0.000000 1.000000
vt 0.500000 1.000000
vt 0.500000 0.000000
vn 1.000000 -0.000000 0.000000
vn 1.000000 -0.000000 0.000000
vn 1.000000 -0.000000 0.000000
vn 1.000000 -0.000000 0.000000
vn -1.000000 0.000000 -0.000000
vn -1.000000 0.000000 -0.000000
vn -1.000000 0.000000 -0.000000
vn -1.000000 0.000000 -0.000000
s off
g Single_Blade_of_Grass_01
usemtl initialShadingGroup
f 1/1/1 2/2/2 4/4/3 3/3/4
f 5/5/5 7/6/6 8/7/7 6/8/8
