# This file uses centimeters as units for non-parametric coordinates.

mtllib Rail Gun Proj Outer.mtl
g default
v 0.079755 0.178530 0.382275
v -0.000000 0.252479 0.382275
v -0.079756 0.178530 0.382275
v -0.112791 0.000000 0.382275
v -0.079756 -0.178530 0.382275
v -0.000000 -0.252479 0.382275
v 0.079755 -0.178530 0.382275
v 0.112791 0.000000 0.382275
v 0.087169 0.195126 0.589820
v -0.000000 0.275949 0.589820
v -0.087170 0.195126 0.589820
v -0.123276 0.000000 0.589820
v -0.087170 -0.195126 0.589820
v -0.000000 -0.275949 0.589820
v 0.087169 -0.195126 0.589820
v 0.123276 0.000000 0.589820
v 0.055234 0.123641 -0.163991
v -0.000000 0.174855 -0.163991
v -0.055235 0.123641 -0.163991
v -0.078114 -0.000000 -0.163991
v -0.055235 -0.123641 -0.163991
v -0.000000 -0.174855 -0.163991
v 0.055234 -0.123641 -0.163991
v 0.078113 -0.000000 -0.163991
v 0.015403 0.034480 -0.275949
v -0.000000 0.048762 -0.275949
v -0.015403 0.034480 -0.275949
v -0.021784 -0.000000 -0.275949
v -0.015403 -0.034480 -0.275949
v -0.000000 -0.048762 -0.275949
v 0.015403 -0.034480 -0.275949
v 0.021784 -0.000000 -0.275949
v 0.003331 0.007457 -0.308832
v -0.000000 0.010546 -0.308832
v -0.000000 -0.000000 -0.308832
v -0.003331 0.007457 -0.308832
v -0.004711 -0.000000 -0.308832
v -0.003331 -0.007457 -0.308832
v -0.000000 -0.010546 -0.308832
v 0.003331 -0.007457 -0.308832
v 0.004711 -0.000000 -0.308832
vt 0.244892 0.244892
vt 0.124530 0.500000
vt 0.024674 0.500000
vt 0.188701 0.188701
vt 0.400239 0.400239
vt 0.377691 0.500000
vt 0.244892 0.755108
vt 0.188701 0.811299
vt 0.400239 0.599761
vt 0.755108 0.755108
vt 0.875470 0.500001
vt 0.975326 0.500001
vt 0.811299 0.811300
vt 0.599761 0.599761
vt 0.622309 0.500000
vt 0.755108 0.244892
vt 0.811299 0.188701
vt 0.599761 0.400239
vt 0.500000 0.492040
vt 0.505628 0.494372
vt 0.500000 0.500000
vt 0.500000 0.463197
vt 0.526024 0.473976
vt 0.507960 0.500000
vt 0.494372 0.494372
vt 0.500000 0.377691
vt 0.536803 0.500000
vt 0.473976 0.473976
vt 0.505628 0.505628
vt 0.492041 0.500000
vt 0.526024 0.526024
vt 0.463197 0.500000
vt 0.500000 0.507959
vt 0.494372 0.505628
vt 0.500000 0.536803
vt 0.473976 0.526024
vt 0.500000 0.622309
vt 0.499999 0.124530
vt 0.499999 0.024674
vt 0.500000 0.875470
vt 0.500001 0.975326
vn 0.677587 0.730785 -0.082640
vn 0.677587 0.730785 -0.082640
vn 0.677587 0.730785 -0.082640
vn 0.677587 0.730785 -0.082640
vn -0.677587 0.730785 -0.082640
vn -0.677587 0.730785 -0.082640
vn -0.677587 0.730785 -0.082640
vn -0.677587 0.730785 -0.082640
vn -0.982096 0.181730 -0.049614
vn -0.982096 0.181730 -0.049614
vn -0.982096 0.181730 -0.049614
vn -0.982096 0.181730 -0.049614
vn -0.982096 -0.181730 -0.049614
vn -0.982096 -0.181730 -0.049614
vn -0.982096 -0.181730 -0.049614
vn -0.982096 -0.181730 -0.049614
vn -0.677587 -0.730785 -0.082640
vn -0.677587 -0.730785 -0.082640
vn -0.677587 -0.730785 -0.082640
vn -0.677587 -0.730785 -0.082640
vn 0.677586 -0.730785 -0.082640
vn 0.677586 -0.730785 -0.082640
vn 0.677586 -0.730785 -0.082640
vn 0.677586 -0.730785 -0.082640
vn 0.982096 -0.181729 -0.049613
vn 0.982096 -0.181729 -0.049613
vn 0.982096 -0.181729 -0.049613
vn 0.982096 -0.181729 -0.049613
vn 0.982096 0.181729 -0.049613
vn 0.982096 0.181729 -0.049613
vn 0.982096 0.181729 -0.049613
vn 0.982096 0.181729 -0.049613
vn 0.000000 -0.000000 -1.000000
vn 0.000000 -0.000000 -1.000000
vn 0.000000 -0.000000 -1.000000
vn 0.000000 -0.000000 -1.000000
vn 0.000000 -0.000000 -1.000000
vn 0.000000 -0.000000 -1.000000
vn 0.000000 -0.000000 -1.000000
vn 0.000000 -0.000000 -1.000000
vn 0.000000 -0.000000 -1.000000
vn 0.676250 0.729345 -0.103640
vn 0.676250 0.729345 -0.103640
vn 0.676250 0.729345 -0.103640
vn 0.676250 0.729345 -0.103640
vn -0.676252 0.729344 -0.103640
vn -0.676252 0.729344 -0.103640
vn -0.676252 0.729344 -0.103640
vn -0.676252 0.729344 -0.103640
vn -0.981397 0.181601 -0.062301
vn -0.981397 0.181601 -0.062301
vn -0.981397 0.181601 -0.062301
vn -0.981397 0.181601 -0.062301
vn -0.981397 -0.181601 -0.062301
vn -0.981397 -0.181601 -0.062301
vn -0.981397 -0.181601 -0.062301
vn -0.981397 -0.181601 -0.062301
vn -0.676252 -0.729344 -0.103640
vn -0.676252 -0.729344 -0.103640
vn -0.676252 -0.729344 -0.103640
vn -0.676252 -0.729344 -0.103640
vn 0.676250 -0.729345 -0.103640
vn 0.676250 -0.729345 -0.103640
vn 0.676250 -0.729345 -0.103640
vn 0.676250 -0.729345 -0.103640
vn 0.981397 -0.181600 -0.062300
vn 0.981397 -0.181600 -0.062300
vn 0.981397 -0.181600 -0.062300
vn 0.981397 -0.181600 -0.062300
vn 0.981397 0.181600 -0.062300
vn 0.981397 0.181600 -0.062300
vn 0.981397 0.181600 -0.062300
vn 0.981397 0.181600 -0.062300
vn 0.524242 0.565404 -0.636780
vn 0.524242 0.565404 -0.636780
vn 0.524242 0.565404 -0.636780
vn 0.524242 0.565404 -0.636780
vn -0.524245 0.565402 -0.636779
vn -0.524245 0.565402 -0.636779
vn -0.524245 0.565402 -0.636779
vn -0.524245 0.565402 -0.636779
vn -0.881346 0.163087 -0.443432
vn -0.881346 0.163087 -0.443432
vn -0.881346 0.163087 -0.443432
vn -0.881346 0.163087 -0.443432
vn -0.881346 -0.163087 -0.443432
vn -0.881346 -0.163087 -0.443432
vn -0.881346 -0.163087 -0.443432
vn -0.881346 -0.163087 -0.443432
vn -0.524245 -0.565402 -0.636779
vn -0.524245 -0.565402 -0.636779
vn -0.524245 -0.565402 -0.636779
vn -0.524245 -0.565402 -0.636779
vn 0.524242 -0.565404 -0.636780
vn 0.524242 -0.565404 -0.636780
vn 0.524242 -0.565404 -0.636780
vn 0.524242 -0.565404 -0.636780
vn 0.881347 -0.163086 -0.443430
vn 0.881347 -0.163086 -0.443430
vn 0.881347 -0.163086 -0.443430
vn 0.881347 -0.163086 -0.443430
vn 0.881347 0.163086 -0.443430
vn 0.881347 0.163085 -0.443430
vn 0.881347 0.163086 -0.443430
vn 0.881347 0.163086 -0.443430
vn 0.517473 0.558108 -0.648643
vn 0.517473 0.558108 -0.648643
vn 0.517473 0.558108 -0.648643
vn 0.517473 0.558108 -0.648643
vn -0.517480 0.558103 -0.648640
vn -0.517480 0.558103 -0.648640
vn -0.517481 0.558103 -0.648641
vn -0.517480 0.558103 -0.648641
vn -0.875774 0.162058 -0.454706
vn -0.875774 0.162058 -0.454706
vn -0.875774 0.162058 -0.454706
vn -0.875774 0.162058 -0.454706
vn -0.875774 -0.162058 -0.454706
vn -0.875774 -0.162058 -0.454706
vn -0.875774 -0.162058 -0.454706
vn -0.875774 -0.162058 -0.454706
vn -0.517481 -0.558103 -0.648641
vn -0.517481 -0.558103 -0.648641
vn -0.517481 -0.558103 -0.648641
vn -0.517481 -0.558103 -0.648641
vn 0.517473 -0.558108 -0.648643
vn 0.517473 -0.558108 -0.648643
vn 0.517473 -0.558108 -0.648643
vn 0.517473 -0.558108 -0.648643
vn 0.875776 -0.162052 -0.454704
vn 0.875776 -0.162052 -0.454704
vn 0.875776 -0.162052 -0.454704
vn 0.875776 -0.162052 -0.454704
vn 0.875776 0.162052 -0.454704
vn 0.875776 0.162052 -0.454704
vn 0.875776 0.162052 -0.454704
vn 0.875776 0.162052 -0.454704
s off
g pCylinder2
usemtl initialShadingGroup
f 1/16/1 2/38/2 10/39/3 9/17/4
f 2/38/5 3/1/6 11/4/7 10/39/8
f 3/1/9 4/2/10 12/3/11 11/4/12
f 4/2/13 5/7/14 13/8/15 12/3/16
f 5/7/17 6/40/18 14/41/19 13/8/20
f 6/40/21 7/10/22 15/13/23 14/41/24
f 7/10/25 8/11/26 16/12/27 15/13/28
f 8/11/29 1/16/30 9/17/31 16/12/32
s 1
f 34/19/33 33/20/34 35/21/35
f 36/25/36 34/19/33 35/21/35
f 37/30/37 36/25/36 35/21/35
f 38/34/38 37/30/37 35/21/35
f 39/33/39 38/34/38 35/21/35
f 40/29/40 39/33/39 35/21/35
f 41/24/41 40/29/40 35/21/35
f 33/20/34 41/24/41 35/21/35
s off
f 2/38/42 1/16/43 17/18/44 18/26/45
f 3/1/46 2/38/47 18/26/48 19/5/49
f 4/2/50 3/1/51 19/5/52 20/6/53
f 5/7/54 4/2/55 20/6/56 21/9/57
f 6/40/58 5/7/59 21/9/60 22/37/61
f 7/10/62 6/40/63 22/37/64 23/14/65
f 8/11/66 7/10/67 23/14/68 24/15/69
f 1/16/70 8/11/71 24/15/72 17/18/73
f 18/26/74 17/18/75 25/23/76 26/22/77
f 19/5/78 18/26/79 26/22/80 27/28/81
f 20/6/82 19/5/83 27/28/84 28/32/85
f 21/9/86 20/6/87 28/32/88 29/36/89
f 22/37/90 21/9/91 29/36/92 30/35/93
f 23/14/94 22/37/95 30/35/96 31/31/97
f 24/15/98 23/14/99 31/31/100 32/27/101
f 17/18/102 24/15/103 32/27/104 25/23/105
f 26/22/106 25/23/107 33/20/108 34/19/109
f 27/28/110 26/22/111 34/19/112 36/25/113
f 28/32/114 27/28/115 36/25/116 37/30/117
f 29/36/118 28/32/119 37/30/120 38/34/121
f 30/35/122 29/36/123 38/34/124 39/33/125
f 31/31/126 30/35/127 39/33/128 40/29/129
f 32/27/130 31/31/131 40/29/132 41/24/133
f 25/23/134 32/27/135 41/24/136 33/20/137
