# This file uses centimeters as units for non-parametric coordinates.

mtllib Door Opening Mesh.mtl
g default
v 1.591812 1.341398 -1.323148
v 1.346242 1.992801 -1.669964
v 1.056572 2.761184 -1.615921
v 0.766903 3.529568 -1.356244
v 0.521333 4.180972 -0.989765
v 0.357248 4.616227 -0.582700
v 0.299629 4.769068 -0.011851
v 0.357248 4.616227 0.558998
v 0.521332 4.180973 0.966064
v 0.766902 3.529569 1.332543
v 1.056572 2.761186 1.592219
v 1.346241 1.992802 1.751753
v 1.591811 1.341398 1.502160
v 3.388046 0.562572 -2.885270
v 2.921983 1.798861 -3.358972
v 2.372223 3.257165 -3.056190
v 1.822464 4.715469 -2.563355
v 1.356400 5.951759 -1.867821
v 1.044986 6.777823 -1.095258
v 0.935632 7.067898 -0.011851
v 1.044986 6.777824 1.071556
v 1.356399 5.951761 1.844120
v 1.822463 4.715471 2.539654
v 2.372222 3.257167 3.032490
v 2.921982 1.798863 3.335271
v 3.388045 0.562573 2.861570
vt 0.003884 0.000697
vt 0.086570 0.000697
vt 0.169256 0.000697
vt 0.251942 0.000697
vt 0.334628 0.000697
vt 0.421045 0.000697
vt 0.500000 0.000697
vt 0.578955 0.000697
vt 0.665372 0.000697
vt 0.748058 0.000697
vt 0.830744 0.000697
vt 0.913430 0.000697
vt 0.996116 0.000697
vt 0.003884 0.499303
vt 0.086570 0.499303
vt 0.169256 0.499303
vt 0.251942 0.499303
vt 0.334628 0.499303
vt 0.421045 0.499303
vt 0.500000 0.499303
vt 0.578955 0.499303
vt 0.665372 0.499303
vt 0.748058 0.499303
vt 0.830744 0.499303
vt 0.913430 0.499303
vt 0.996116 0.499303
vn -0.673325 -0.493237 -0.550772
vn -0.704618 -0.346906 -0.619007
vn -0.705619 -0.339802 -0.621801
vn -0.673325 -0.493237 -0.550773
vn -0.725596 -0.094919 -0.681543
vn -0.723161 -0.116644 -0.680759
vn -0.759528 0.014096 -0.650322
vn -0.750015 -0.005644 -0.661397
vn -0.819173 0.106892 -0.563497
vn -0.808699 0.093391 -0.580762
vn -0.922112 0.217501 -0.320005
vn -0.912537 0.206643 -0.352951
vn -0.963794 0.266647 -0.000000
vn -0.963794 0.266647 -0.000000
vn -0.922112 0.217501 0.320004
vn -0.912538 0.206643 0.352950
vn -0.819174 0.106892 0.563497
vn -0.808699 0.093391 0.580762
vn -0.759528 0.014096 0.650322
vn -0.750015 -0.005644 0.661397
vn -0.723029 -0.075968 0.686629
vn -0.718920 -0.093214 0.688814
vn -0.694266 -0.300293 0.654079
vn -0.693074 -0.307446 0.652016
vn -0.652868 -0.472858 0.591750
vn -0.652868 -0.472858 0.591750
s 1
g Drop_Pod_Door_Open
usemtl initialShadingGroup
f 1/1/1 2/2/2 15/15/3 14/14/4
f 2/2/2 3/3/5 16/16/6 15/15/3
f 3/3/5 4/4/7 17/17/8 16/16/6
f 4/4/7 5/5/9 18/18/10 17/17/8
f 5/5/9 6/6/11 19/19/12 18/18/10
f 6/6/11 7/7/13 20/20/14 19/19/12
f 7/7/13 8/8/15 21/21/16 20/20/14
f 8/8/15 9/9/17 22/22/18 21/21/16
f 9/9/17 10/10/19 23/23/20 22/22/18
f 10/10/19 11/11/21 24/24/22 23/23/20
f 11/11/21 12/12/23 25/25/24 24/24/22
f 12/12/23 13/13/25 26/26/26 25/25/24
